<svg xmlns="http://www.w3.org/2000/svg" xmlns:xlink="http://www.w3.org/1999/xlink" width="2000" zoomAndPan="magnify" viewBox="0 0 1500 1499.999933" height="2000" preserveAspectRatio="xMidYMid meet" version="1.0"><defs><g/><clipPath id="bbd2927185"><rect x="0" width="502" y="0" height="358"/></clipPath><clipPath id="8f45ea4b99"><rect x="0" width="163" y="0" height="358"/></clipPath><clipPath id="ad7155587e"><path d="M 1014.039062 585.214844 L 1104 585.214844 L 1104 715.714844 L 1014.039062 715.714844 Z M 1014.039062 585.214844 " clip-rule="nonzero"/></clipPath><clipPath id="d929f6df2d"><rect x="0" width="308" y="0" height="358"/></clipPath></defs><rect x="-150" width="1800" fill="#ffffff" y="-149.999993" height="1799.99992" fill-opacity="1"/><rect x="-150" width="1800" fill="#fffdf9" y="-149.999993" height="1799.99992" fill-opacity="1"/><g transform="matrix(1, 0, 0, 1, 501, 571)"><g clip-path="url(#bbd2927185)"><g fill="#222222" fill-opacity="1"><g transform="translate(6.147177, 295.818715)"><g><path d="M 164.0625 -5.9375 C 164.0625 -4.351562 163.515625 -2.96875 162.421875 -1.78125 C 161.335938 -0.59375 159.90625 0 158.125 0 L 113.328125 0 C 109.765625 0 107.785156 -1.78125 107.390625 -5.34375 L 104.421875 -41.53125 L 59.625 -32.640625 L 53.109375 -5.34375 C 52.316406 -2.375 50.335938 -0.890625 47.171875 -0.890625 L 3.265625 -1.78125 C 1.285156 -1.78125 -0.242188 -2.519531 -1.328125 -4 C -2.421875 -5.488281 -2.769531 -7.320312 -2.375 -9.5 C 2.570312 -28.082031 9.394531 -51.421875 18.09375 -79.515625 C 22.644531 -94.347656 28.675781 -111.253906 36.1875 -130.234375 C 43.113281 -147.835938 52.410156 -170.285156 64.078125 -197.578125 C 64.867188 -199.359375 66.351562 -200.546875 68.53125 -201.140625 L 74.765625 -202.328125 C 80.691406 -203.515625 85.238281 -204.304688 88.40625 -204.703125 C 90.1875 -205.097656 93.15625 -205.296875 97.3125 -205.296875 C 101.0625 -205.296875 103.828125 -205.195312 105.609375 -205 C 115.109375 -204.207031 122.722656 -197.382812 128.453125 -184.53125 C 130.234375 -179.78125 132.3125 -172.957031 134.6875 -164.0625 C 137.257812 -153.382812 139.632812 -142.503906 141.8125 -131.421875 L 164.0625 -7.125 Z M 71.203125 -192.25 L 71.203125 -194.015625 L 70.015625 -194.015625 L 70.015625 -192.25 Z M 107.09375 -184.53125 L 107.09375 -186.90625 L 106.203125 -186.90625 L 106.203125 -184.53125 Z M 104.71875 -179.484375 C 105.113281 -180.273438 105.3125 -181.066406 105.3125 -181.859375 C 104.320312 -181.859375 103.828125 -181.957031 103.828125 -182.15625 L 103.828125 -180.375 Z M 70.3125 -180.671875 L 70.3125 -176.8125 C 70.3125 -177.601562 70.804688 -178.789062 71.796875 -180.375 L 70.90625 -180.375 Z M 109.46875 -179.78125 C 109.863281 -180.175781 110.160156 -180.375 110.359375 -180.375 L 107.09375 -180.671875 L 107.09375 -179.484375 C 107.289062 -179.285156 107.390625 -178.988281 107.390625 -178.59375 L 108.578125 -178.59375 C 108.578125 -178.789062 108.875 -179.1875 109.46875 -179.78125 Z M 107.09375 -178.59375 L 107.09375 -179.1875 L 106.5 -180.375 L 106.5 -179.484375 Z M 112.734375 -177.109375 C 111.941406 -177.109375 111.25 -176.414062 110.65625 -175.03125 L 111.25 -174.4375 L 115.109375 -174.4375 L 116.296875 -175.03125 C 115.304688 -175.625 114.8125 -176.21875 114.8125 -176.8125 L 115.40625 -177.703125 C 114.21875 -177.304688 113.328125 -177.109375 112.734375 -177.109375 Z M 111.84375 -169.109375 C 111.050781 -169.109375 110.65625 -168.710938 110.65625 -167.921875 C 111.050781 -167.523438 111.546875 -167.328125 112.140625 -167.328125 C 112.335938 -167.328125 112.832031 -167.128906 113.625 -166.734375 C 114.019531 -167.128906 114.21875 -167.425781 114.21875 -167.625 L 114.515625 -168.21875 C 113.523438 -168.8125 112.632812 -169.109375 111.84375 -169.109375 Z M 87.8125 -166.4375 L 88.109375 -167.328125 L 87.8125 -167.328125 L 87.21875 -166.734375 Z M 91.078125 -163.46875 L 92.5625 -163.46875 C 92.757812 -163.269531 92.957031 -163.21875 93.15625 -163.3125 C 93.351562 -163.414062 93.550781 -163.46875 93.75 -163.46875 C 93.75 -164.257812 93.550781 -164.851562 93.15625 -165.25 C 92.957031 -165.25 92.757812 -165.195312 92.5625 -165.09375 C 92.363281 -165 92.164062 -164.953125 91.96875 -164.953125 L 90.78125 -164.953125 Z M 116.890625 -159.609375 C 116.890625 -159.410156 116.394531 -159.113281 115.40625 -158.71875 C 115.007812 -158.71875 114.8125 -158.421875 114.8125 -157.828125 C 114.8125 -157.628906 115.007812 -157.332031 115.40625 -156.9375 L 117.1875 -156.9375 C 117.976562 -157.332031 118.375 -157.726562 118.375 -158.125 C 118.375 -159.113281 117.878906 -159.609375 116.890625 -159.609375 Z M 51.625 -148.046875 C 51.820312 -148.429688 51.570312 -148.328125 50.875 -147.734375 C 50.1875 -147.148438 49.84375 -146.757812 49.84375 -146.5625 C 49.84375 -145.96875 50.085938 -145.273438 50.578125 -144.484375 C 51.078125 -143.691406 51.425781 -143.296875 51.625 -143.296875 C 51.820312 -143.890625 51.921875 -144.679688 51.921875 -145.671875 C 51.921875 -146.859375 51.820312 -147.648438 51.625 -148.046875 Z M 72.09375 -143.59375 C 72.09375 -143.59375 72.140625 -143.640625 72.234375 -143.734375 C 72.335938 -143.835938 72.488281 -143.890625 72.6875 -143.890625 C 73.28125 -143.691406 73.675781 -143.789062 73.875 -144.1875 L 72.390625 -144.78125 C 72.191406 -144.78125 72.09375 -144.582031 72.09375 -144.1875 Z M 51.328125 -135.875 L 52.515625 -135.875 L 52.515625 -139.4375 L 51.328125 -139.140625 Z M 86.03125 -137.953125 C 84.445312 -137.953125 83.257812 -137.257812 82.46875 -135.875 C 82.863281 -134.488281 83.359375 -133.695312 83.953125 -133.5 C 84.546875 -133.300781 85.4375 -133.5 86.625 -134.09375 L 87.515625 -136.46875 L 87.21875 -137.0625 C 87.21875 -137.257812 87.019531 -137.554688 86.625 -137.953125 Z M 118.078125 -137.0625 L 120.15625 -137.0625 L 120.15625 -137.65625 L 118.078125 -137.65625 Z M 121.34375 -132.3125 C 121.34375 -133.300781 120.75 -133.796875 119.5625 -133.796875 L 119.265625 -132.90625 L 119.5625 -132.3125 Z M 95.53125 -99.6875 C 94.738281 -106.007812 94.046875 -110.753906 93.453125 -113.921875 C 91.867188 -122.222656 90.582031 -128.453125 89.59375 -132.609375 L 75.0625 -84.84375 L 97.3125 -85.4375 Z M 82.765625 -128.453125 L 83.359375 -128.15625 L 84.25 -130.53125 L 83.65625 -130.828125 Z M 111.546875 -128.453125 L 112.140625 -128.75 L 111.546875 -129.34375 L 110.65625 -129.046875 Z M 74.46875 -111.25 C 75.0625 -111.644531 75.703125 -112.285156 76.390625 -113.171875 C 77.085938 -114.066406 77.535156 -114.8125 77.734375 -115.40625 L 78.328125 -117.78125 L 81.28125 -124.015625 L 79.8125 -124.609375 L 78.328125 -123.421875 C 77.535156 -122.628906 77.039062 -122.234375 76.84375 -122.234375 C 75.851562 -118.472656 75.359375 -116.691406 75.359375 -116.890625 C 74.765625 -115.503906 74.367188 -114.8125 74.171875 -114.8125 C 74.171875 -114.414062 73.875 -114.019531 73.28125 -113.625 C 72.882812 -113.226562 72.585938 -112.535156 72.390625 -111.546875 L 70.3125 -105.015625 L 69.125 -100.875 C 68.53125 -99.09375 67.640625 -97.507812 66.453125 -96.125 C 65.265625 -94.738281 64.519531 -93.550781 64.21875 -92.5625 C 63.925781 -91.570312 63.78125 -90.976562 63.78125 -90.78125 C 63.382812 -89.988281 63.1875 -89.097656 63.1875 -88.109375 C 62.988281 -86.921875 62.394531 -85.535156 61.40625 -83.953125 C 60.613281 -82.367188 60.117188 -81.179688 59.921875 -80.390625 C 59.921875 -79.015625 60.117188 -78.328125 60.515625 -78.328125 C 61.109375 -78.128906 61.601562 -78.128906 62 -78.328125 C 62 -78.328125 62.296875 -78.625 62.890625 -79.21875 C 63.679688 -80.988281 64.273438 -82.664062 64.671875 -84.25 C 64.867188 -86.03125 65.5625 -87.613281 66.75 -89 C 66.75 -89.59375 67.34375 -90.484375 68.53125 -91.671875 L 69.71875 -94.9375 C 70.113281 -95.53125 70.707031 -97.109375 71.5 -99.671875 C 72.289062 -102.242188 73.28125 -104.914062 74.46875 -107.6875 Z M 115.40625 -118.078125 C 115.40625 -118.078125 115.453125 -118.125 115.546875 -118.21875 C 115.648438 -118.320312 115.703125 -118.375 115.703125 -118.375 L 113.625 -118.671875 L 113.625 -117.484375 L 115.40625 -117.484375 Z M 121.34375 -115.40625 L 119.5625 -116 L 119.5625 -115.40625 L 121.34375 -114.8125 Z M 107.09375 -113.921875 C 107.289062 -113.523438 107.585938 -113.328125 107.984375 -113.328125 C 108.378906 -113.328125 108.578125 -113.523438 108.578125 -113.921875 Z M 122.53125 -103.53125 C 123.519531 -103.53125 124.015625 -103.925781 124.015625 -104.71875 Z M 103.53125 -102.65625 C 103.53125 -102.84375 103.332031 -103.132812 102.9375 -103.53125 L 101.765625 -103.828125 L 101.765625 -102.65625 Z M 114.21875 -99.6875 C 114.019531 -101.269531 112.832031 -102.257812 110.65625 -102.65625 C 110.0625 -102.457031 109.765625 -101.863281 109.765625 -100.875 L 111.546875 -100.875 C 110.554688 -100.28125 110.457031 -99.585938 111.25 -98.796875 L 113.921875 -98.796875 L 113.921875 -99.6875 Z M 121.9375 -101.46875 C 123.125 -101.46875 123.71875 -101.664062 123.71875 -102.0625 C 123.519531 -102.0625 123.367188 -102.109375 123.265625 -102.203125 C 123.171875 -102.304688 123.125 -102.457031 123.125 -102.65625 L 122.53125 -102.65625 C 122.132812 -102.65625 121.9375 -102.457031 121.9375 -102.0625 Z M 118.078125 -101.46875 C 118.472656 -101.070312 118.769531 -100.875 118.96875 -100.875 L 119.5625 -101.765625 C 119.5625 -101.960938 118.96875 -102.0625 117.78125 -102.0625 Z M 121.9375 -98.203125 C 122.726562 -97.804688 123.320312 -97.609375 123.71875 -97.609375 C 124.707031 -97.609375 125.691406 -97.90625 126.671875 -98.5 C 125.890625 -99.289062 125.101562 -99.6875 124.3125 -99.6875 L 121.9375 -99.6875 Z M 113.921875 -94.640625 C 114.710938 -94.640625 115.207031 -94.539062 115.40625 -94.34375 L 117.1875 -94.34375 L 117.1875 -95.828125 L 116.296875 -96.125 C 116.097656 -96.320312 115.800781 -96.421875 115.40625 -96.421875 C 114.414062 -96.023438 113.921875 -95.429688 113.921875 -94.640625 Z M 102.0625 -95.53125 L 102.0625 -94.9375 L 104.421875 -94.9375 L 104.421875 -95.53125 Z M 128.15625 -94.34375 C 127.957031 -95.132812 127.660156 -95.53125 127.265625 -95.53125 L 124.3125 -95.53125 C 123.320312 -94.738281 122.53125 -94.191406 121.9375 -93.890625 C 121.34375 -93.597656 121.046875 -93.351562 121.046875 -93.15625 C 121.046875 -92.363281 121.9375 -90.582031 123.71875 -87.8125 L 127.859375 -87.8125 L 129.046875 -88.109375 C 128.453125 -89.097656 127.757812 -89.59375 126.96875 -89.59375 C 126.175781 -89.59375 125.191406 -90.1875 124.015625 -91.375 C 125.390625 -91.769531 126.175781 -92.164062 126.375 -92.5625 C 126.570312 -93.15625 127.164062 -93.75 128.15625 -94.34375 Z M 55.78125 -94.640625 L 55.1875 -91.96875 C 55.1875 -91.175781 55.484375 -90.582031 56.078125 -90.1875 C 56.671875 -91.175781 56.96875 -91.96875 56.96875 -92.5625 L 56.96875 -94.640625 Z M 114.515625 -93.15625 L 114.21875 -93.75 L 112.140625 -93.75 L 112.140625 -92.5625 L 113.625 -91.375 L 113.625 -91.671875 L 114.21875 -91.96875 L 114.8125 -91.96875 Z M 118.078125 -91.671875 C 118.078125 -91.671875 118.023438 -91.71875 117.921875 -91.8125 C 117.828125 -91.914062 117.78125 -91.96875 117.78125 -91.96875 L 117.1875 -91.96875 L 117.78125 -88.40625 C 118.375 -89.195312 118.769531 -90.1875 118.96875 -91.375 Z M 110.953125 -90.1875 C 110.554688 -90.382812 110.109375 -90.429688 109.609375 -90.328125 C 109.117188 -90.234375 108.773438 -90.1875 108.578125 -90.1875 L 109.46875 -88.703125 C 109.863281 -88.898438 110.457031 -89 111.25 -89 L 113.328125 -88.703125 C 113.722656 -88.703125 114.164062 -88.847656 114.65625 -89.140625 C 115.15625 -89.441406 115.40625 -89.789062 115.40625 -90.1875 Z M 107.984375 -86.921875 L 107.6875 -86.03125 L 108.28125 -85.734375 L 108.578125 -86.921875 Z M 112.140625 -82.765625 C 112.335938 -82.960938 112.4375 -83.257812 112.4375 -83.65625 L 110.65625 -83.953125 L 110.0625 -83.359375 L 109.765625 -82.765625 L 111.84375 -82.171875 C 111.84375 -82.566406 111.941406 -82.765625 112.140625 -82.765625 Z M 107.390625 -82.765625 C 108.179688 -82.765625 108.378906 -82.960938 107.984375 -83.359375 Z M 124.015625 -79.515625 C 124.015625 -79.710938 123.71875 -80.101562 123.125 -80.6875 L 122.234375 -80.390625 C 122.035156 -80.390625 121.9375 -80.289062 121.9375 -80.09375 L 123.71875 -79.515625 Z M 121.34375 -75.359375 C 120.945312 -75.753906 120.75 -76.347656 120.75 -77.140625 C 120.351562 -77.929688 120.15625 -78.523438 120.15625 -78.921875 C 118.375 -80.097656 116.789062 -80.585938 115.40625 -80.390625 C 115.40625 -80.003906 115.703125 -79.8125 116.296875 -79.8125 C 117.085938 -79.613281 117.78125 -78.722656 118.375 -77.140625 L 118.375 -75.359375 Z M 105.609375 -78.328125 L 105.609375 -77.140625 L 106.5 -77.140625 L 106.5 -78.328125 Z M 133.5 -74.765625 L 133.5 -75.0625 L 131.71875 -75.359375 L 131.71875 -74.765625 Z M 112.140625 -73.28125 L 113.328125 -73.28125 L 113.328125 -74.765625 L 112.140625 -74.765625 Z M 105.609375 -72.09375 L 105.609375 -72.6875 L 104.71875 -72.6875 L 104.71875 -72.09375 Z M 94.34375 -71.203125 L 94.34375 -70.609375 L 95.828125 -70.609375 L 95.828125 -71.203125 Z M 102.0625 -66.453125 C 102.257812 -66.648438 102.359375 -67.144531 102.359375 -67.9375 C 101.960938 -67.9375 101.269531 -67.640625 100.28125 -67.046875 L 101.46875 -67.046875 Z M 111.84375 -65.859375 C 110.851562 -64.867188 110.359375 -64.375 110.359375 -64.375 C 111.546875 -63.78125 112.535156 -63.484375 113.328125 -63.484375 C 114.710938 -64.472656 115.40625 -65.265625 115.40625 -65.859375 C 115.40625 -66.054688 115.109375 -66.453125 114.515625 -67.046875 C 113.921875 -67.046875 113.625 -67.242188 113.625 -67.640625 Z M 118.078125 -57.546875 L 119.5625 -57.546875 L 119.5625 -58.140625 L 118.078125 -58.140625 Z M 114.21875 -57.546875 C 114.21875 -56.566406 114.8125 -55.78125 116 -55.1875 L 116 -57.546875 Z M 125.78125 -55.484375 C 125.78125 -55.085938 126.023438 -54.539062 126.515625 -53.84375 C 127.015625 -53.15625 127.660156 -52.8125 128.453125 -52.8125 C 129.441406 -52.8125 130.035156 -52.910156 130.234375 -53.109375 C 130.234375 -53.109375 130.828125 -53.207031 132.015625 -53.40625 C 131.816406 -53.800781 131.519531 -54 131.125 -54 L 129.9375 -54.890625 C 129.738281 -55.085938 129.640625 -55.972656 129.640625 -57.546875 C 129.441406 -56.765625 128.945312 -56.375 128.15625 -56.375 Z M 59.328125 -55.1875 L 59.328125 -53.703125 L 62.59375 -53.703125 L 62.59375 -55.1875 Z M 55.484375 -49.546875 C 55.085938 -50.335938 54.890625 -50.929688 54.890625 -51.328125 C 52.910156 -52.316406 51.722656 -52.8125 51.328125 -52.8125 C 50.335938 -52.8125 49.59375 -52.515625 49.09375 -51.921875 C 48.601562 -51.328125 48.359375 -50.832031 48.359375 -50.4375 C 48.359375 -49.84375 48.753906 -49.195312 49.546875 -48.5 C 50.335938 -47.8125 51.226562 -47.46875 52.21875 -47.46875 C 52.613281 -47.46875 52.910156 -47.566406 53.109375 -47.765625 L 56.078125 -47.765625 Z M 105.609375 -52.8125 L 105.609375 -51.625 L 106.5 -51.625 L 106.5 -52.8125 Z M 139.140625 -51.921875 L 139.140625 -52.515625 L 137.953125 -52.515625 L 137.953125 -51.921875 Z M 108.875 -51.625 C 109.664062 -51.425781 110.0625 -51.128906 110.0625 -50.734375 L 113.03125 -50.734375 L 113.03125 -51.625 Z M 94.34375 -51.328125 L 93.453125 -51.03125 L 93.75 -50.4375 L 94.640625 -50.734375 Z M 143.890625 -10.6875 C 144.484375 -10.6875 144.976562 -10.882812 145.375 -11.28125 L 144.1875 -18.390625 L 143 -25.515625 L 141.8125 -27 L 141.21875 -28.484375 C 141.21875 -29.078125 141.710938 -29.769531 142.703125 -30.5625 C 140.921875 -31.550781 140.128906 -32.441406 140.328125 -33.234375 C 140.722656 -34.410156 140.921875 -35.195312 140.921875 -35.59375 C 140.921875 -36.78125 140.523438 -38.066406 139.734375 -39.453125 C 139.140625 -40.441406 138.84375 -41.132812 138.84375 -41.53125 C 138.84375 -42.320312 139.140625 -42.71875 139.734375 -42.71875 C 139.929688 -42.71875 140.03125 -43.015625 140.03125 -43.609375 C 140.03125 -44.398438 139.734375 -45.390625 139.140625 -46.578125 L 137.0625 -44.796875 L 134.984375 -43.3125 L 134.09375 -43.90625 L 134.09375 -46.875 C 134.09375 -47.863281 134.984375 -48.359375 136.765625 -48.359375 L 137.953125 -47.46875 L 137.953125 -49.84375 C 137.359375 -50.238281 136.566406 -50.582031 135.578125 -50.875 C 134.585938 -51.175781 133.894531 -51.328125 133.5 -51.328125 C 132.507812 -51.328125 131.320312 -50.976562 129.9375 -50.28125 C 128.550781 -49.59375 127.859375 -48.851562 127.859375 -48.0625 C 127.859375 -47.863281 128.054688 -47.566406 128.453125 -47.171875 L 129.640625 -46.28125 C 129.046875 -45.6875 129.046875 -44.992188 129.640625 -44.203125 L 130.828125 -43.3125 C 131.023438 -43.3125 131.171875 -43.210938 131.265625 -43.015625 C 131.367188 -42.816406 131.421875 -42.71875 131.421875 -42.71875 C 130.828125 -42.320312 130.132812 -42.125 129.34375 -42.125 C 127.5625 -42.125 126.671875 -41.628906 126.671875 -40.640625 C 126.273438 -39.253906 126.078125 -38.5625 126.078125 -38.5625 C 126.472656 -38.757812 126.914062 -38.757812 127.40625 -38.5625 C 127.90625 -38.363281 128.054688 -38.066406 127.859375 -37.671875 C 127.859375 -37.273438 127.660156 -37.078125 127.265625 -37.078125 C 127.066406 -37.078125 126.96875 -36.976562 126.96875 -36.78125 C 126.96875 -36.382812 126.867188 -36.085938 126.671875 -35.890625 L 126.078125 -34.703125 L 126.078125 -32.046875 C 126.273438 -31.847656 127.3125 -31.351562 129.1875 -30.5625 C 131.070312 -29.769531 131.125 -28.976562 129.34375 -28.1875 C 129.9375 -27.988281 131.125 -27.890625 132.90625 -27.890625 C 133.5 -27.890625 133.992188 -27.988281 134.390625 -28.1875 L 136.171875 -28.1875 L 136.171875 -24.03125 L 135.875 -24.03125 L 135.875 -23.734375 L 135.578125 -23.734375 L 136.46875 -22.84375 C 137.0625 -22.25 137.359375 -21.953125 137.359375 -21.953125 C 137.359375 -21.554688 137.554688 -21.359375 137.953125 -21.359375 C 137.953125 -21.359375 138.25 -21.0625 138.84375 -20.46875 L 139.140625 -17.796875 C 139.535156 -16.804688 140.226562 -16.015625 141.21875 -15.421875 C 141.21875 -15.023438 141.117188 -14.726562 140.921875 -14.53125 L 140.921875 -13.9375 C 140.921875 -13.539062 141.316406 -12.898438 142.109375 -12.015625 C 142.898438 -11.128906 143.492188 -10.6875 143.890625 -10.6875 Z M 32.046875 -46.28125 C 32.640625 -46.875 32.34375 -47.269531 31.15625 -47.46875 L 31.15625 -46.875 Z M 44.796875 -41.53125 C 45.191406 -41.925781 45.09375 -42.421875 44.5 -43.015625 C 44.101562 -42.617188 43.90625 -42.125 43.90625 -41.53125 C 43.90625 -41.332031 44.101562 -41.234375 44.5 -41.234375 C 44.695312 -41.234375 44.796875 -41.332031 44.796875 -41.53125 Z M 123.71875 -38.5625 C 123.914062 -38.5625 124.015625 -38.859375 124.015625 -39.453125 L 121.9375 -39.453125 C 121.9375 -38.859375 122.035156 -38.5625 122.234375 -38.5625 C 122.234375 -38.5625 122.53125 -38.265625 123.125 -37.671875 C 123.125 -37.867188 123.171875 -38.015625 123.265625 -38.109375 C 123.367188 -38.210938 123.519531 -38.363281 123.71875 -38.5625 Z M 37.671875 -36.1875 L 38.265625 -36.484375 L 38.265625 -37.96875 C 38.265625 -38.5625 37.671875 -38.859375 36.484375 -38.859375 L 35.890625 -38.5625 C 35.890625 -38.5625 35.835938 -38.507812 35.734375 -38.40625 C 35.640625 -38.3125 35.59375 -38.265625 35.59375 -38.265625 L 35.59375 -37.078125 Z M 109.765625 -38.5625 L 109.765625 -37.375 L 111.84375 -37.375 L 111.84375 -38.5625 Z M 117.1875 -35 C 117.1875 -35.59375 116.9375 -35.9375 116.4375 -36.03125 C 115.945312 -36.132812 115.601562 -36.1875 115.40625 -36.1875 L 115.40625 -35 Z M 36.484375 -31.453125 C 36.484375 -31.648438 36.628906 -31.847656 36.921875 -32.046875 C 37.222656 -32.242188 37.472656 -32.441406 37.671875 -32.640625 L 39.75 -33.234375 L 39.75 -34.40625 C 39.351562 -34.800781 39.054688 -35 38.859375 -35 L 37.671875 -35.890625 C 36.878906 -34.117188 35.300781 -33.234375 32.9375 -33.234375 C 32.9375 -32.835938 33.226562 -32.34375 33.8125 -31.75 C 34.40625 -31.15625 35 -30.859375 35.59375 -30.859375 C 35.789062 -30.859375 36.085938 -31.054688 36.484375 -31.453125 Z M 113.625 -32.9375 C 112.832031 -33.132812 112.335938 -33.332031 112.140625 -33.53125 L 112.4375 -31.453125 L 115.40625 -32.046875 Z M 48.359375 -25.515625 C 48.753906 -25.710938 48.953125 -26.109375 48.953125 -26.703125 L 48.359375 -27.296875 C 47.960938 -27.296875 47.765625 -27.195312 47.765625 -27 L 47.171875 -27 L 45.984375 -26.703125 L 47.171875 -25.8125 Z M 35.890625 -23.734375 C 35.691406 -23.734375 35.394531 -23.878906 35 -24.171875 C 34.601562 -24.472656 34.210938 -24.722656 33.828125 -24.921875 C 32.835938 -24.921875 32.34375 -24.523438 32.34375 -23.734375 C 32.539062 -23.535156 33.132812 -23.535156 34.125 -23.734375 Z M 39.453125 -22.546875 C 40.046875 -23.140625 40.441406 -23.4375 40.640625 -23.4375 C 40.640625 -24.226562 40.242188 -24.722656 39.453125 -24.921875 C 38.265625 -24.328125 37.671875 -23.929688 37.671875 -23.734375 Z M 118.96875 -22.546875 C 118.96875 -22.941406 118.570312 -23.535156 117.78125 -24.328125 L 116.296875 -23.4375 L 115.703125 -22.546875 Z M 121.9375 -8.609375 C 121.9375 -8.609375 121.984375 -8.65625 122.078125 -8.75 C 122.179688 -8.851562 122.234375 -8.90625 122.234375 -8.90625 C 121.640625 -10.09375 121.34375 -11.078125 121.34375 -11.859375 L 118.375 -11.859375 C 118.769531 -11.078125 119.265625 -10.335938 119.859375 -9.640625 C 120.453125 -8.953125 121.046875 -8.410156 121.640625 -8.015625 Z M 121.9375 -8.609375 "/></g></g></g><g fill="#222222" fill-opacity="1"><g transform="translate(184.732441, 295.818715)"><g><path d="M 139.734375 -30.265625 C 140.328125 -29.472656 140.625 -28.484375 140.625 -27.296875 C 140.625 -25.515625 139.632812 -23.929688 137.65625 -22.546875 L 105.015625 -1.1875 C 103.828125 -0.195312 102.25 0.0976562 100.28125 -0.296875 C 98.300781 -0.890625 97.015625 -1.976562 96.421875 -3.5625 C 88.703125 -20.570312 83.457031 -31.25 80.6875 -35.59375 L 80.6875 -35.890625 C 75.15625 -45.785156 70.90625 -53.203125 67.9375 -58.140625 L 62.890625 -66.453125 L 46.28125 -62 L 45.390625 -8.015625 C 45.390625 -4.054688 43.410156 -2.078125 39.453125 -2.078125 L 2.96875 -2.078125 C 1.1875 -2.078125 -0.242188 -2.671875 -1.328125 -3.859375 C -2.421875 -5.046875 -2.96875 -6.53125 -2.96875 -8.3125 L 9.203125 -191.953125 C 9.398438 -195.109375 11.078125 -196.984375 14.234375 -197.578125 L 59.03125 -203.21875 L 59.328125 -203.21875 L 67.640625 -204.109375 C 75.554688 -204.898438 81.6875 -205.296875 86.03125 -205.296875 C 94.738281 -205.296875 102.253906 -204.503906 108.578125 -202.921875 C 119.859375 -200.546875 128.460938 -194.515625 134.390625 -184.828125 C 140.328125 -175.140625 143.296875 -163.765625 143.296875 -150.703125 C 143.296875 -140.816406 141.613281 -130.832031 138.25 -120.75 C 134.882812 -111.25 129.445312 -102.644531 121.9375 -94.9375 C 117.382812 -90.78125 113.523438 -87.613281 110.359375 -85.4375 Z M 75.359375 -187.796875 L 75.359375 -188.390625 L 72.6875 -188.390625 L 72.6875 -187.796875 Z M 72.984375 -185.71875 L 72.984375 -184.828125 L 74.46875 -184.828125 C 74.46875 -185.023438 74.664062 -185.320312 75.0625 -185.71875 L 75.359375 -186.015625 L 73.28125 -186.015625 Z M 87.8125 -184.53125 C 87.8125 -184.726562 87.613281 -184.828125 87.21875 -184.828125 C 86.820312 -184.828125 86.625 -185.023438 86.625 -185.421875 L 86.625 -183.9375 Z M 82.46875 -183.34375 L 83.0625 -183.9375 L 82.46875 -183.9375 L 81.875 -183.34375 Z M 76.25 -182.75 C 76.644531 -182.75 76.84375 -182.648438 76.84375 -182.453125 C 76.84375 -182.253906 76.941406 -182.15625 77.140625 -182.15625 C 77.535156 -182.15625 77.734375 -182.253906 77.734375 -182.453125 L 77.734375 -182.75 Z M 70.015625 -181.265625 C 68.828125 -180.273438 68.628906 -179.285156 69.421875 -178.296875 L 71.5 -178.296875 L 71.5 -178.59375 C 71.5 -179.382812 71.003906 -180.273438 70.015625 -181.265625 Z M 101.765625 -181.265625 C 101.566406 -181.066406 101.613281 -180.769531 101.90625 -180.375 C 102.207031 -179.976562 102.550781 -179.78125 102.9375 -179.78125 C 103.132812 -179.78125 103.234375 -179.976562 103.234375 -180.375 C 103.234375 -180.375 103.332031 -180.421875 103.53125 -180.515625 C 103.726562 -180.617188 103.828125 -180.769531 103.828125 -180.96875 Z M 96.421875 -180.671875 C 95.429688 -179.679688 94.835938 -178.988281 94.640625 -178.59375 L 94.9375 -178.59375 L 95.234375 -178.296875 L 95.53125 -178.296875 C 96.519531 -178.890625 97.015625 -179.382812 97.015625 -179.78125 C 97.015625 -179.976562 96.816406 -180.273438 96.421875 -180.671875 Z M 19.578125 -178.296875 L 19.578125 -179.78125 L 18.984375 -179.78125 L 18.984375 -178.296875 Z M 81.875 -179.78125 C 81.875 -179.78125 81.476562 -179.382812 80.6875 -178.59375 L 83.65625 -178.296875 L 84.25 -179.1875 L 83.0625 -179.484375 C 83.0625 -179.679688 82.664062 -179.78125 81.875 -179.78125 Z M 86.03125 -179.1875 C 86.03125 -178.789062 86.128906 -178.492188 86.328125 -178.296875 L 86.625 -177.703125 L 88.40625 -177.703125 L 88.40625 -179.1875 Z M 110.953125 -178.296875 L 110.953125 -179.1875 L 109.765625 -179.1875 L 109.765625 -178.296875 Z M 69.421875 -176.21875 L 69.125 -176.8125 L 68.234375 -176.21875 L 68.234375 -175.625 Z M 91.375 -175.625 C 91.769531 -176.019531 91.769531 -176.21875 91.375 -176.21875 L 90.78125 -176.8125 C 90.382812 -176.414062 90.1875 -176.21875 90.1875 -176.21875 L 90.1875 -175.625 Z M 81.875 -174.4375 L 82.46875 -174.4375 L 82.46875 -175.625 L 81.875 -175.625 Z M 86.03125 -173.25 C 85.632812 -172.851562 85.039062 -172.457031 84.25 -172.0625 L 83.0625 -171.171875 L 86.03125 -171.171875 Z M 92.5625 -172.359375 C 92.164062 -172.753906 91.175781 -172.953125 89.59375 -172.953125 C 89.59375 -172.753906 89.738281 -172.601562 90.03125 -172.5 C 90.332031 -172.40625 90.582031 -172.257812 90.78125 -172.0625 C 90.78125 -172.0625 91.175781 -171.960938 91.96875 -171.765625 L 92.265625 -171.765625 L 92.265625 -172.0625 Z M 97.015625 -171.46875 C 96.816406 -171.46875 96.617188 -171.414062 96.421875 -171.3125 C 96.222656 -171.21875 96.023438 -171.171875 95.828125 -171.171875 L 96.421875 -169.703125 L 97.609375 -170.296875 L 98.203125 -170.890625 Z M 112.140625 -168.515625 C 112.140625 -169.304688 111.644531 -170.097656 110.65625 -170.890625 L 110.65625 -167.921875 Z M 98.5 -169.703125 C 97.707031 -169.304688 97.3125 -168.910156 97.3125 -168.515625 C 97.3125 -168.117188 97.707031 -167.921875 98.5 -167.921875 L 99.984375 -167.625 C 100.378906 -168.613281 100.378906 -169.601562 99.984375 -170.59375 Z M 60.515625 -168.515625 C 60.910156 -167.722656 61.109375 -167.128906 61.109375 -166.734375 L 61.703125 -164.953125 L 62.890625 -165.546875 L 62.59375 -166.4375 L 62.296875 -167.03125 L 62.296875 -167.921875 C 62.296875 -168.316406 62.59375 -168.515625 63.1875 -168.515625 Z M 100.28125 -166.4375 C 99.488281 -166.832031 98.894531 -167.03125 98.5 -167.03125 L 98.203125 -165.546875 L 98.5 -165.25 L 99.6875 -165.25 L 99.6875 -165.546875 L 100.28125 -165.546875 Z M 113.328125 -163.171875 C 113.921875 -163.367188 114.019531 -164.0625 113.625 -165.25 C 112.4375 -164.65625 111.546875 -164.0625 110.953125 -163.46875 Z M 115.703125 -162.578125 C 115.703125 -162.378906 115.898438 -162.082031 116.296875 -161.6875 C 116.691406 -161.289062 116.988281 -161.09375 117.1875 -161.09375 C 116.988281 -161.882812 116.691406 -162.28125 116.296875 -162.28125 Z M 48.953125 -112.140625 C 58.835938 -113.523438 67.191406 -115.800781 74.015625 -118.96875 C 80.835938 -122.132812 86.128906 -127.375 89.890625 -134.6875 C 93.054688 -141.414062 94.640625 -146.457031 94.640625 -149.8125 C 94.640625 -151.988281 94.242188 -153.867188 93.453125 -155.453125 L 93.453125 -155.75 C 92.660156 -157.925781 90.382812 -159.507812 86.625 -160.5 L 82.765625 -160.796875 C 80.003906 -160.796875 77.140625 -160.398438 74.171875 -159.609375 L 53.40625 -154.859375 Z M 106.796875 -156.046875 C 106.796875 -156.441406 106.695312 -156.738281 106.5 -156.9375 L 105.3125 -157.234375 L 105.3125 -156.046875 Z M 106.5 -152.484375 C 107.09375 -153.078125 107.390625 -153.671875 107.390625 -154.265625 L 106.203125 -154.265625 L 105.015625 -153.671875 C 104.617188 -153.273438 104.519531 -153.078125 104.71875 -153.078125 Z M 110.65625 -153.078125 C 111.644531 -153.078125 112.140625 -153.472656 112.140625 -154.265625 L 110.65625 -154.265625 Z M 132.609375 -150.109375 C 132.609375 -149.515625 132.410156 -149.21875 132.015625 -149.21875 C 132.210938 -149.019531 132.457031 -148.921875 132.75 -148.921875 C 133.050781 -148.921875 133.300781 -148.820312 133.5 -148.625 L 135.28125 -148.328125 C 135.28125 -148.722656 135.378906 -148.921875 135.578125 -148.921875 C 135.773438 -149.117188 135.875 -149.414062 135.875 -149.8125 C 135.875 -150.601562 135.476562 -151.492188 134.6875 -152.484375 L 134.6875 -150.109375 Z M 109.46875 -150.703125 C 109.46875 -150.503906 109.269531 -150.40625 108.875 -150.40625 L 110.953125 -149.8125 L 110.65625 -150.40625 C 110.457031 -150.601562 110.160156 -150.703125 109.765625 -150.703125 Z M 110.65625 -147.75 L 110.953125 -147.75 L 110.0625 -148.625 L 109.765625 -148.328125 Z M 135.28125 -147.75 L 134.6875 -147.75 L 134.6875 -140.921875 L 135.28125 -140.921875 Z M 134.984375 -134.6875 C 134.984375 -135.675781 135.476562 -136.566406 136.46875 -137.359375 C 135.476562 -137.554688 134.984375 -138.050781 134.984375 -138.84375 C 135.179688 -139.238281 135.082031 -139.832031 134.6875 -140.625 L 134.6875 -119.5625 C 135.476562 -120.75 135.875 -121.9375 135.875 -123.125 L 135.578125 -126.671875 C 135.378906 -127.460938 135.28125 -128.453125 135.28125 -129.640625 C 135.28125 -130.429688 135.378906 -130.925781 135.578125 -131.125 C 135.578125 -131.914062 135.378906 -132.90625 134.984375 -134.09375 Z M 104.421875 -135.28125 C 103.828125 -136.664062 102.742188 -137.359375 101.171875 -137.359375 Z M 106.796875 -132.90625 L 106.796875 -132.015625 L 109.46875 -132.015625 L 109.46875 -132.90625 Z M 101.765625 -129.046875 C 101.765625 -129.242188 101.566406 -129.539062 101.171875 -129.9375 C 100.578125 -130.332031 100.082031 -130.53125 99.6875 -130.53125 L 99.09375 -128.453125 Z M 28.484375 -124.609375 C 28.285156 -125.203125 27.890625 -125.789062 27.296875 -126.375 C 26.898438 -126.570312 26.703125 -126.96875 26.703125 -127.5625 C 26.304688 -126.96875 25.316406 -126.472656 23.734375 -126.078125 L 26.109375 -125.5 C 26.898438 -125.101562 27.296875 -124.804688 27.296875 -124.609375 Z M 93.75 -124.609375 C 93.945312 -124.609375 94.34375 -124.457031 94.9375 -124.15625 C 95.53125 -123.863281 96.023438 -123.816406 96.421875 -124.015625 C 96.816406 -124.210938 97.113281 -124.507812 97.3125 -124.90625 L 97.3125 -126.375 L 94.9375 -126.671875 C 94.539062 -126.472656 94.242188 -126.320312 94.046875 -126.21875 C 93.847656 -126.125 93.847656 -126.078125 94.046875 -126.078125 C 93.648438 -126.078125 93.453125 -125.785156 93.453125 -125.203125 Z M 21.953125 -125.78125 C 21.953125 -125.59375 22.148438 -125.300781 22.546875 -124.90625 L 23.140625 -125.203125 L 23.140625 -125.5 C 23.535156 -125.882812 23.734375 -126.175781 23.734375 -126.375 L 21.953125 -126.375 Z M 28.484375 -121.9375 C 28.085938 -122.132812 27.539062 -122.476562 26.84375 -122.96875 C 26.15625 -123.46875 25.515625 -123.71875 24.921875 -123.71875 L 23.734375 -123.125 C 22.941406 -122.726562 22.347656 -122.332031 21.953125 -121.9375 L 23.140625 -121.640625 C 23.535156 -121.242188 23.929688 -121.046875 24.328125 -121.046875 Z M 101.46875 -123.125 L 100.875 -121.9375 L 102.0625 -121.640625 L 102.65625 -122.828125 Z M 82.46875 -118.96875 C 82.070312 -118.96875 81.675781 -118.816406 81.28125 -118.515625 C 80.882812 -118.222656 80.6875 -117.878906 80.6875 -117.484375 C 81.082031 -117.085938 81.675781 -116.890625 82.46875 -116.890625 L 82.46875 -115.40625 C 82.863281 -115.40625 83.851562 -115.703125 85.4375 -116.296875 C 84.644531 -116.890625 83.65625 -117.1875 82.46875 -117.1875 L 82.46875 -117.78125 C 82.863281 -118.175781 82.863281 -118.570312 82.46875 -118.96875 Z M 93.15625 -117.484375 L 92.5625 -118.671875 L 90.78125 -116.890625 L 93.15625 -116.890625 Z M 22.546875 -118.078125 L 21.953125 -118.078125 L 22.546875 -116 L 23.140625 -116 Z M 87.8125 -114.8125 C 88.40625 -115.800781 88.40625 -116.691406 87.8125 -117.484375 L 86.03125 -117.484375 C 86.820312 -115.898438 87.414062 -115.007812 87.8125 -114.8125 Z M 22.546875 -115.40625 L 21.953125 -114.21875 L 22.546875 -113.921875 L 23.140625 -115.109375 Z M 30.265625 -114.8125 L 30.265625 -113.625 L 31.75 -113.625 L 31.75 -114.8125 Z M 69.421875 -114.515625 L 69.421875 -113.328125 L 70.90625 -113.625 Z M 85.4375 -113.625 C 84.25 -113.03125 83.257812 -112.335938 82.46875 -111.546875 L 84.84375 -111.546875 L 89.59375 -110.359375 L 89.296875 -110.65625 L 89 -111.25 L 89 -111.546875 L 86.03125 -111.546875 Z M 90.78125 -108.578125 C 91.175781 -108.578125 91.375 -108.675781 91.375 -108.875 C 91.375 -109.46875 91.273438 -109.863281 91.078125 -110.0625 L 90.1875 -110.953125 C 89.195312 -109.765625 89 -108.875 89.59375 -108.28125 Z M 84.25 -105.609375 C 84.644531 -105.609375 85.039062 -105.410156 85.4375 -105.015625 C 86.625 -106.003906 87.21875 -106.796875 87.21875 -107.390625 L 86.921875 -107.984375 L 86.625 -108.28125 C 86.425781 -108.476562 86.226562 -108.972656 86.03125 -109.765625 L 85.4375 -109.171875 L 84.84375 -109.171875 L 84.25 -108.578125 Z M 18.390625 -108.28125 C 18.191406 -108.28125 18.09375 -108.082031 18.09375 -107.6875 L 19.578125 -107.6875 C 19.578125 -107.882812 19.179688 -108.378906 18.390625 -109.171875 Z M 95.53125 -105.90625 L 95.53125 -107.09375 L 93.15625 -106.5 L 93.15625 -105.609375 Z M 90.1875 -105.3125 C 88.601562 -105.3125 87.8125 -104.914062 87.8125 -104.125 C 87.8125 -103.53125 88.40625 -103.234375 89.59375 -103.234375 L 90.1875 -103.234375 Z M 27.296875 -105.015625 L 25.515625 -104.421875 L 25.515625 -104.125 L 27.890625 -104.71875 Z M 65.265625 -102.65625 C 65.265625 -102.65625 65.660156 -103.046875 66.453125 -103.828125 L 65.265625 -104.71875 C 64.472656 -104.519531 64.078125 -104.023438 64.078125 -103.234375 Z M 91.375 -103.234375 C 90.1875 -102.648438 89.59375 -101.960938 89.59375 -101.171875 L 91.375 -101.171875 C 92.164062 -101.765625 92.164062 -102.453125 91.375 -103.234375 Z M 89 -100.578125 C 89 -101.171875 88.601562 -101.664062 87.8125 -102.0625 C 87.414062 -102.0625 87.019531 -101.910156 86.625 -101.609375 C 86.226562 -101.316406 86.03125 -101.070312 86.03125 -100.875 C 86.425781 -100.675781 87.019531 -100.578125 87.8125 -100.578125 Z M 96.421875 -99.984375 C 96.421875 -100.179688 96.222656 -100.28125 95.828125 -100.28125 C 95.828125 -100.28125 95.773438 -100.328125 95.671875 -100.421875 C 95.578125 -100.523438 95.53125 -100.578125 95.53125 -100.578125 L 94.9375 -100.875 L 92.859375 -100.875 C 93.253906 -100.082031 93.453125 -99.289062 93.453125 -98.5 C 94.046875 -98.300781 94.539062 -98.300781 94.9375 -98.5 L 96.421875 -98.5 Z M 64.078125 -96.125 L 62.890625 -96.125 L 62.890625 -95.53125 L 64.078125 -95.53125 Z M 93.15625 -94.34375 C 93.945312 -94.34375 94.441406 -94.441406 94.640625 -94.640625 C 95.035156 -95.035156 95.234375 -95.332031 95.234375 -95.53125 C 94.835938 -95.925781 93.945312 -96.125 92.5625 -96.125 Z M 64.078125 -91.375 C 64.078125 -90.976562 64.175781 -90.78125 64.375 -90.78125 L 65.265625 -90.78125 C 65.460938 -91.769531 65.460938 -92.265625 65.265625 -92.265625 C 64.472656 -92.265625 64.078125 -91.96875 64.078125 -91.375 Z M 92.859375 -90.78125 C 91.867188 -89.789062 91.375 -88.898438 91.375 -88.109375 L 91.96875 -87.8125 L 94.046875 -87.8125 L 93.453125 -89.59375 Z M 94.34375 -87.515625 L 93.453125 -86.328125 L 94.640625 -86.03125 L 95.53125 -87.21875 Z M 97.015625 -84.84375 C 98.003906 -84.84375 98.894531 -85.140625 99.6875 -85.734375 L 97.015625 -86.328125 C 96.617188 -85.535156 96.617188 -85.039062 97.015625 -84.84375 Z M 92.859375 -85.734375 C 91.867188 -86.328125 90.976562 -86.226562 90.1875 -85.4375 C 90.582031 -85.039062 91.273438 -84.84375 92.265625 -84.84375 C 92.660156 -84.84375 92.859375 -85.039062 92.859375 -85.4375 Z M 65.859375 -80.390625 L 65.265625 -80.09375 L 65.5625 -79.515625 L 66.15625 -79.515625 Z M 97.609375 -68.828125 C 97.609375 -69.421875 97.507812 -69.816406 97.3125 -70.015625 C 97.3125 -70.015625 97.257812 -69.960938 97.15625 -69.859375 C 97.0625 -69.765625 97.015625 -69.71875 97.015625 -69.71875 L 96.71875 -69.421875 L 96.421875 -69.421875 Z M 122.234375 -55.484375 C 122.628906 -55.484375 122.828125 -55.78125 122.828125 -56.375 L 121.34375 -56.375 Z M 123.71875 -53.703125 L 122.234375 -53.703125 L 122.234375 -51.921875 C 122.828125 -51.328125 123.617188 -51.03125 124.609375 -51.03125 C 124.210938 -51.625 124.015625 -52.21875 124.015625 -52.8125 Z M 125.203125 -47.46875 L 124.609375 -46.578125 L 125.203125 -46.28125 L 125.78125 -47.171875 Z M 129.640625 -35.296875 C 129.640625 -36.085938 129.046875 -36.582031 127.859375 -36.78125 C 127.265625 -36.1875 126.96875 -35.789062 126.96875 -35.59375 C 126.96875 -35 127.210938 -34.457031 127.703125 -33.96875 C 128.203125 -33.476562 128.648438 -33.234375 129.046875 -33.234375 L 129.34375 -34.125 Z M 121.640625 -30.859375 C 122.035156 -30.859375 122.578125 -30.957031 123.265625 -31.15625 C 123.960938 -31.351562 124.507812 -31.648438 124.90625 -32.046875 L 124.015625 -32.34375 L 123.125 -32.9375 C 122.726562 -33.132812 122.035156 -33.234375 121.046875 -33.234375 C 120.648438 -33.234375 120.253906 -33.132812 119.859375 -32.9375 C 119.460938 -32.738281 119.265625 -32.441406 119.265625 -32.046875 C 120.054688 -31.253906 120.847656 -30.859375 121.640625 -30.859375 Z M 19.578125 -13.640625 C 20.566406 -13.640625 21.160156 -14.035156 21.359375 -14.828125 L 20.171875 -14.828125 C 20.171875 -14.035156 19.972656 -13.640625 19.578125 -13.640625 Z M 19.578125 -13.640625 "/></g></g></g><g fill="#222222" fill-opacity="1"><g transform="translate(346.705104, 295.818715)"><g><path d="M 146.265625 -180.96875 C 147.640625 -179.1875 148.328125 -177.703125 148.328125 -176.515625 C 148.328125 -175.128906 147.738281 -173.84375 146.5625 -172.65625 L 90.78125 -108.28125 L 141.21875 -37.375 C 142.207031 -35.988281 142.703125 -34.707031 142.703125 -33.53125 C 142.703125 -32.34375 141.910156 -30.957031 140.328125 -29.375 L 109.46875 -2.375 C 107.6875 -0.988281 106.101562 -0.59375 104.71875 -1.1875 C 102.945312 -1.1875 101.566406 -2.078125 100.578125 -3.859375 L 84.84375 -27.890625 C 79.90625 -35.992188 74.566406 -44.003906 68.828125 -51.921875 C 63.285156 -59.628906 56.363281 -68.429688 48.0625 -78.328125 L 48.0625 -7.125 C 48.0625 -3.164062 46.179688 -1.085938 42.421875 -0.890625 L 3.265625 0 C 1.484375 0 0 -0.59375 -1.1875 -1.78125 C -2.375 -2.96875 -2.96875 -4.453125 -2.96875 -6.234375 C -2.375 -41.628906 -1.1875 -76.734375 0.59375 -111.546875 C 1.382812 -128.753906 2.078125 -141.3125 2.671875 -149.21875 L 2.96875 -154.859375 L 3.265625 -154.859375 L 4.453125 -156.046875 L 2.96875 -156.640625 L 4.75 -178.296875 L 6.234375 -200.25 C 6.429688 -204.007812 8.503906 -205.890625 12.453125 -205.890625 L 49.546875 -205.890625 C 51.328125 -205.890625 52.8125 -205.242188 54 -203.953125 C 55.1875 -202.671875 55.78125 -201.140625 55.78125 -199.359375 L 51.328125 -144.484375 L 111.546875 -206.78125 C 112.929688 -208.164062 114.414062 -208.859375 116 -208.859375 C 117.582031 -208.859375 118.96875 -208.265625 120.15625 -207.078125 Z M 124.609375 -178.59375 C 125.390625 -178.59375 125.78125 -178.890625 125.78125 -179.484375 L 125.203125 -180.078125 L 123.125 -180.078125 C 122.132812 -179.484375 122.234375 -178.988281 123.421875 -178.59375 Z M 112.734375 -175.921875 C 111.941406 -175.921875 111.546875 -175.820312 111.546875 -175.625 C 111.546875 -175.625 111.25 -175.425781 110.65625 -175.03125 L 111.84375 -175.03125 L 112.140625 -175.625 Z M 106.203125 -174.140625 C 106.597656 -174.335938 106.398438 -174.632812 105.609375 -175.03125 C 105.609375 -174.632812 105.707031 -174.4375 105.90625 -174.4375 C 106.101562 -174.039062 106.203125 -173.941406 106.203125 -174.140625 Z M 118.96875 -174.4375 L 119.265625 -174.734375 L 117.78125 -175.03125 L 117.484375 -175.03125 Z M 118.078125 -167.328125 C 118.671875 -167.328125 119.363281 -167.472656 120.15625 -167.765625 C 120.945312 -168.066406 121.34375 -168.515625 121.34375 -169.109375 C 121.34375 -169.304688 121.144531 -169.601562 120.75 -170 C 120.351562 -170.394531 119.859375 -170.59375 119.265625 -170.59375 C 117.085938 -170.59375 116 -170.097656 116 -169.109375 L 116.296875 -167.921875 C 117.085938 -167.523438 117.679688 -167.328125 118.078125 -167.328125 Z M 12.453125 -168.21875 L 11.859375 -168.515625 C 11.078125 -168.515625 10.6875 -168.117188 10.6875 -167.328125 C 10.6875 -166.929688 10.785156 -166.734375 10.984375 -166.734375 L 11.859375 -166.140625 C 11.859375 -166.335938 12.351562 -166.632812 13.34375 -167.03125 L 13.34375 -167.921875 Z M 119.5625 -162.875 L 118.078125 -162.875 C 117.679688 -162.476562 117.484375 -162.179688 117.484375 -161.984375 L 119.265625 -161.984375 L 120.15625 -162.578125 Z M 124.90625 -157.828125 C 124.707031 -158.023438 124.410156 -158.125 124.015625 -158.125 C 123.421875 -158.125 122.828125 -157.972656 122.234375 -157.671875 C 121.640625 -157.378906 121.242188 -157.132812 121.046875 -156.9375 L 121.046875 -156.046875 L 122.53125 -155.75 C 122.726562 -155.945312 123.222656 -156.046875 124.015625 -156.046875 C 124.804688 -156.046875 125.394531 -156.144531 125.78125 -156.34375 L 125.78125 -157.234375 Z M 101.171875 -156.34375 C 101.765625 -156.34375 102.0625 -156.539062 102.0625 -156.9375 L 100.578125 -156.9375 C 100.179688 -156.9375 99.882812 -157.035156 99.6875 -157.234375 C 99.6875 -156.640625 99.6875 -156.34375 99.6875 -156.34375 L 99.6875 -155.75 C 100.082031 -156.144531 100.578125 -156.34375 101.171875 -156.34375 Z M 74.171875 -154.859375 C 74.171875 -154.859375 73.972656 -155.054688 73.578125 -155.453125 C 73.378906 -156.046875 72.984375 -156.242188 72.390625 -156.046875 L 71.796875 -156.046875 C 72.191406 -154.859375 72.6875 -154.265625 73.28125 -154.265625 Z M 83.359375 -152.78125 C 83.359375 -152.976562 83.554688 -153.273438 83.953125 -153.671875 C 84.347656 -154.066406 84.347656 -154.265625 83.953125 -154.265625 L 81.28125 -154.265625 L 81.28125 -152.78125 Z M 78.328125 -148.046875 C 77.929688 -148.046875 77.632812 -148.140625 77.4375 -148.328125 L 76.546875 -148.328125 L 76.25 -147.75 C 76.050781 -147.75 75.953125 -147.550781 75.953125 -147.15625 C 75.953125 -146.757812 76.25 -146.363281 76.84375 -145.96875 L 78.328125 -146.5625 Z M 72.09375 -139.734375 C 72.09375 -139.734375 72.039062 -139.78125 71.9375 -139.875 C 71.84375 -139.976562 71.796875 -140.03125 71.796875 -140.03125 L 70.90625 -139.4375 L 71.796875 -138.25 L 72.390625 -138.25 L 72.984375 -138.546875 L 72.984375 -139.734375 Z M 86.328125 -114.8125 C 86.328125 -115.800781 85.734375 -116.296875 84.546875 -116.296875 L 84.546875 -114.8125 Z M 90.78125 -102.359375 C 91.96875 -102.742188 92.5625 -103.429688 92.5625 -104.421875 L 89.59375 -104.421875 Z M 32.640625 -83.0625 C 33.429688 -83.0625 34.316406 -83.457031 35.296875 -84.25 C 36.285156 -85.039062 36.78125 -85.832031 36.78125 -86.625 C 36.78125 -87.019531 36.335938 -87.414062 35.453125 -87.8125 C 34.566406 -88.207031 33.828125 -88.40625 33.234375 -88.40625 C 32.640625 -88.40625 31.894531 -88.007812 31 -87.21875 C 30.113281 -86.425781 29.671875 -85.734375 29.671875 -85.140625 L 30.265625 -83.953125 C 30.660156 -83.359375 31.453125 -83.0625 32.640625 -83.0625 Z M 83.65625 -84.25 C 84.84375 -84.644531 85.4375 -85.335938 85.4375 -86.328125 L 84.25 -86.328125 L 82.765625 -86.03125 Z M 86.625 -77.140625 C 86.03125 -76.546875 86.03125 -75.953125 86.625 -75.359375 L 89 -76.546875 L 88.40625 -77.734375 Z M 90.1875 -77.734375 L 89 -77.140625 L 90.1875 -76.25 L 91.375 -76.546875 Z M 99.6875 -70.3125 C 99.488281 -70.113281 99.390625 -69.914062 99.390625 -69.71875 C 99.390625 -69.519531 99.488281 -69.320312 99.6875 -69.125 C 99.882812 -68.332031 100.675781 -67.9375 102.0625 -67.9375 C 102.644531 -67.9375 103.179688 -68.082031 103.671875 -68.375 C 104.171875 -68.675781 104.320312 -69.125 104.125 -69.71875 L 103.828125 -70.015625 L 103.234375 -70.3125 L 102.65625 -70.609375 C 102.65625 -70.804688 102.359375 -71.003906 101.765625 -71.203125 L 99.984375 -70.609375 Z M 101.171875 -59.921875 L 102.359375 -60.21875 L 101.171875 -61.703125 L 99.984375 -61.109375 Z M 30.265625 -59.921875 L 29.671875 -58.4375 L 30.859375 -58.4375 C 31.054688 -58.238281 31.453125 -58.140625 32.046875 -58.140625 L 32.046875 -59.921875 Z M 110.65625 -54.59375 C 109.46875 -54.59375 108.875 -53.898438 108.875 -52.515625 L 109.765625 -52.515625 C 110.359375 -52.515625 110.800781 -52.710938 111.09375 -53.109375 C 111.394531 -53.503906 111.25 -54 110.65625 -54.59375 Z M 80.6875 -53.40625 L 80.09375 -53.40625 L 80.390625 -52.515625 L 80.984375 -52.515625 Z M 112.734375 -52.515625 C 112.535156 -52.316406 112.632812 -51.820312 113.03125 -51.03125 L 115.109375 -51.921875 C 115.109375 -52.710938 114.710938 -53.207031 113.921875 -53.40625 Z M 103.828125 -49.84375 L 101.765625 -46.875 C 102.742188 -46.875 103.332031 -46.578125 103.53125 -45.984375 C 103.726562 -46.179688 103.828125 -46.425781 103.828125 -46.71875 C 103.828125 -47.019531 103.925781 -47.171875 104.125 -47.171875 L 104.125 -47.46875 C 104.125 -47.46875 104.171875 -47.515625 104.265625 -47.609375 C 104.367188 -47.710938 104.421875 -47.765625 104.421875 -47.765625 C 104.816406 -47.960938 105.015625 -48.160156 105.015625 -48.359375 C 105.015625 -48.554688 105.113281 -48.753906 105.3125 -48.953125 L 105.015625 -49.25 Z M 9.796875 -38.265625 C 9.796875 -38.265625 9.742188 -38.3125 9.640625 -38.40625 C 9.546875 -38.507812 9.5 -38.5625 9.5 -38.5625 C 9.101562 -38.5625 8.90625 -38.363281 8.90625 -37.96875 C 8.90625 -37.570312 9.101562 -37.375 9.5 -37.375 Z M 129.9375 -36.78125 C 129.539062 -36.78125 129.390625 -36.53125 129.484375 -36.03125 C 129.585938 -35.539062 129.835938 -35.394531 130.234375 -35.59375 L 130.53125 -36.1875 C 130.53125 -36.582031 130.332031 -36.78125 129.9375 -36.78125 Z M 101.46875 -35.59375 L 101.171875 -35.59375 L 101.765625 -34.703125 L 102.359375 -35 Z M 101.46875 -35.59375 "/></g></g></g></g></g><g transform="matrix(1, 0, 0, 1, 1113, 571)"><g clip-path="url(#8f45ea4b99)"><g fill="#222222" fill-opacity="1"><g transform="translate(6.229507, 295.818715)"><g><path d="M -2.96875 -6.234375 C -2.96875 -4.453125 -2.421875 -2.96875 -1.328125 -1.78125 C -0.242188 -0.59375 1.1875 0 2.96875 0 L 33.828125 0 C 37.972656 0 44.597656 -0.394531 53.703125 -1.1875 C 71.492188 -3.5625 86.226562 -10.085938 97.90625 -20.765625 C 106.207031 -28.285156 113.769531 -37.382812 120.59375 -48.0625 C 127.414062 -58.738281 132.609375 -71 136.171875 -84.84375 C 139.734375 -99.476562 141.515625 -113.222656 141.515625 -126.078125 C 141.515625 -138.941406 139.734375 -151.40625 136.171875 -163.46875 C 132.804688 -174.738281 126.722656 -184.28125 117.921875 -192.09375 C 109.117188 -199.90625 98.390625 -204.503906 85.734375 -205.890625 C 80.597656 -206.285156 76.742188 -206.484375 74.171875 -206.484375 C 62.890625 -206.484375 52.007812 -205.195312 41.53125 -202.625 L 11.859375 -195.5 C 9.097656 -194.90625 7.519531 -193.03125 7.125 -189.875 Z M 86.03125 -194.609375 C 85.238281 -194.609375 84.546875 -194.707031 83.953125 -194.90625 C 84.347656 -195.695312 85.039062 -196.390625 86.03125 -196.984375 L 86.625 -196.6875 L 87.8125 -196.390625 L 87.8125 -195.796875 C 87.8125 -195.398438 87.910156 -195.203125 88.109375 -195.203125 L 88.109375 -194.609375 Z M 24.03125 -191.65625 L 23.734375 -191.359375 L 23.140625 -191.953125 L 23.140625 -192.25 Z M 51.03125 -192.25 C 51.03125 -190.664062 50.929688 -189.875 50.734375 -189.875 L 50.734375 -188.984375 C 49.148438 -188.984375 48.359375 -189.28125 48.359375 -189.875 C 48.359375 -190.269531 48.65625 -191.0625 49.25 -192.25 Z M 86.625 -189.875 C 86.625 -189.875 85.734375 -189.476562 83.953125 -188.6875 C 83.359375 -189.28125 83.0625 -189.972656 83.0625 -190.765625 C 83.0625 -191.753906 83.359375 -192.25 83.953125 -192.25 L 86.03125 -192.25 C 86.03125 -191.65625 86.128906 -191.257812 86.328125 -191.0625 C 86.523438 -190.863281 86.625 -190.46875 86.625 -189.875 Z M 33.828125 -188.09375 C 33.628906 -188.09375 33.28125 -188.039062 32.78125 -187.9375 C 32.289062 -187.84375 31.351562 -187.796875 29.96875 -187.796875 L 29.96875 -188.390625 C 29.769531 -188.390625 29.671875 -188.585938 29.671875 -188.984375 L 29.671875 -189.28125 L 30.265625 -189.28125 L 30.859375 -189.578125 C 31.847656 -189.578125 32.835938 -189.082031 33.828125 -188.09375 Z M 70.015625 -181.859375 L 69.421875 -179.484375 L 66.15625 -179.78125 L 66.75 -181.859375 Z M 116.59375 -160.203125 C 116.59375 -158.617188 115.207031 -157.828125 112.4375 -157.828125 C 110.65625 -157.828125 109.765625 -158.421875 109.765625 -159.609375 L 110.359375 -160.796875 L 111.84375 -161.984375 C 113.425781 -161.984375 114.910156 -162.28125 116.296875 -162.875 L 116.296875 -161.390625 Z M 101.46875 -161.09375 L 102.0625 -161.09375 L 102.0625 -159.90625 L 101.46875 -159.90625 Z M 66.75 -156.9375 C 69.519531 -157.53125 71.992188 -157.828125 74.171875 -157.828125 C 77.535156 -157.828125 80.300781 -157.082031 82.46875 -155.59375 C 84.644531 -154.113281 86.425781 -151.691406 87.8125 -148.328125 C 89.394531 -143.785156 90.582031 -139.679688 91.375 -136.015625 C 92.164062 -132.359375 92.5625 -128.257812 92.5625 -123.71875 L 92.265625 -117.78125 L 93.453125 -119.265625 C 96.023438 -118.671875 97.3125 -117.976562 97.3125 -117.1875 C 97.3125 -115.800781 96.320312 -115.109375 94.34375 -115.109375 C 93.75 -115.109375 93.253906 -115.40625 92.859375 -116 C 92.660156 -116 92.363281 -116.296875 91.96875 -116.890625 C 91.375 -110.554688 89.988281 -103.335938 87.8125 -95.234375 C 86.226562 -90.085938 83.65625 -83.757812 80.09375 -76.25 C 76.9375 -69.320312 72.632812 -63.878906 67.1875 -59.921875 C 61.75 -55.972656 54.679688 -53.207031 45.984375 -51.625 L 46.578125 -63.78125 L 46.28125 -63.78125 C 44.894531 -63.78125 43.90625 -64.375 43.3125 -65.5625 C 42.914062 -66.351562 42.71875 -67.046875 42.71875 -67.640625 L 42.71875 -69.125 C 42.71875 -69.320312 43.410156 -69.914062 44.796875 -70.90625 L 47.171875 -70.90625 L 51.625 -140.625 C 50.832031 -141.019531 50.4375 -141.414062 50.4375 -141.8125 C 50.4375 -142.207031 49.742188 -143.789062 48.359375 -146.5625 C 50.140625 -147.15625 51.328125 -147.941406 51.921875 -148.921875 L 52.21875 -148.921875 L 52.515625 -154.265625 Z M 11.28125 -127.5625 C 11.28125 -127.363281 11.082031 -127.265625 10.6875 -127.265625 C 10.6875 -127.460938 10.488281 -127.363281 10.09375 -126.96875 L 13.34375 -153.078125 C 13.539062 -152.878906 13.882812 -152.285156 14.375 -151.296875 C 14.875 -150.304688 15.023438 -149.613281 14.828125 -149.21875 C 14.628906 -148.238281 14.378906 -147.054688 14.078125 -145.671875 C 13.785156 -144.285156 13.539062 -143.394531 13.34375 -143 L 13.046875 -140.03125 L 12.453125 -132.015625 L 12.453125 -129.9375 Z M 113.921875 -150.703125 C 113.921875 -151.097656 113.722656 -151.296875 113.328125 -151.296875 L 114.515625 -151.890625 C 115.304688 -151.890625 115.898438 -151.691406 116.296875 -151.296875 L 114.515625 -149.8125 Z M 94.9375 -149.21875 C 95.132812 -149.21875 95.234375 -149.117188 95.234375 -148.921875 C 95.234375 -148.523438 95.035156 -148.328125 94.640625 -148.328125 C 94.242188 -148.328125 93.648438 -148.523438 92.859375 -148.921875 C 93.453125 -149.515625 94.144531 -149.613281 94.9375 -149.21875 Z M 118.078125 -144.1875 C 117.285156 -144.1875 116.890625 -144.582031 116.890625 -145.375 C 117.285156 -146.164062 117.878906 -146.5625 118.671875 -146.5625 C 118.671875 -146.363281 118.96875 -145.96875 119.5625 -145.375 Z M 108.578125 -143 C 108.578125 -142.40625 108.179688 -141.910156 107.390625 -141.515625 C 106.597656 -141.117188 106.003906 -141.019531 105.609375 -141.21875 C 105.609375 -142.601562 104.523438 -143.59375 102.359375 -144.1875 C 102.941406 -144.582031 103.234375 -144.878906 103.234375 -145.078125 C 103.628906 -145.472656 104.023438 -145.671875 104.421875 -145.671875 L 105.609375 -145.671875 C 106.003906 -145.472656 106.203125 -145.175781 106.203125 -144.78125 L 106.796875 -144.1875 C 106.796875 -143.789062 107.191406 -143.59375 107.984375 -143.59375 C 108.378906 -143.59375 108.578125 -143.394531 108.578125 -143 Z M 102.0625 -144.1875 C 101.664062 -143.988281 101.367188 -143.738281 101.171875 -143.4375 C 100.972656 -143.144531 100.773438 -143 100.578125 -143 L 98.796875 -143 L 98.5 -143.296875 C 98.5 -143.296875 98.445312 -143.34375 98.34375 -143.4375 C 98.25 -143.539062 98.203125 -143.59375 98.203125 -143.59375 C 98.203125 -144.382812 98.695312 -144.78125 99.6875 -144.78125 L 101.46875 -144.78125 Z M 118.671875 -140.625 C 117.679688 -140.625 117.1875 -140.921875 117.1875 -141.515625 C 117.1875 -142.304688 117.484375 -142.800781 118.078125 -143 L 118.671875 -141.8125 Z M 119.5625 -130.234375 L 118.078125 -130.53125 C 117.878906 -130.726562 117.726562 -130.875 117.625 -130.96875 C 117.53125 -131.070312 117.484375 -131.222656 117.484375 -131.421875 C 117.484375 -132.015625 117.878906 -132.3125 118.671875 -132.3125 C 119.660156 -132.3125 120.253906 -132.210938 120.453125 -132.015625 L 120.453125 -130.53125 Z M 96.71875 -127.265625 C 94.9375 -127.859375 94.046875 -128.351562 94.046875 -128.75 C 94.242188 -129.144531 94.046875 -129.835938 93.453125 -130.828125 L 94.640625 -130.234375 C 95.429688 -130.234375 96.125 -130.53125 96.71875 -131.125 L 97.3125 -130.828125 L 97.609375 -130.234375 L 97.609375 -127.859375 Z M 107.390625 -128.75 L 106.203125 -127.5625 C 105.015625 -126.96875 104.421875 -127.265625 104.421875 -128.453125 C 104.421875 -128.847656 104.816406 -129.34375 105.609375 -129.9375 L 106.796875 -129.640625 L 107.6875 -129.34375 Z M 125.78125 -125.78125 C 125.394531 -125.59375 124.804688 -125.890625 124.015625 -126.671875 L 124.3125 -126.96875 L 124.609375 -126.96875 C 125.203125 -126.96875 125.59375 -126.867188 125.78125 -126.671875 Z M 103.828125 -118.375 C 103.828125 -117.976562 103.53125 -117.582031 102.9375 -117.1875 L 102.0625 -117.1875 C 101.863281 -116.988281 101.46875 -116.890625 100.875 -116.890625 C 100.082031 -116.890625 99.335938 -117.382812 98.640625 -118.375 C 97.953125 -119.363281 97.609375 -120.054688 97.609375 -120.453125 C 97.609375 -120.847656 97.707031 -121.046875 97.90625 -121.046875 C 98.101562 -121.242188 98.203125 -121.539062 98.203125 -121.9375 C 98.203125 -122.332031 98.101562 -122.53125 97.90625 -122.53125 C 97.3125 -122.925781 96.914062 -123.222656 96.71875 -123.421875 C 96.71875 -123.421875 96.765625 -123.46875 96.859375 -123.5625 C 96.960938 -123.664062 97.015625 -123.71875 97.015625 -123.71875 L 97.609375 -123.71875 C 98.992188 -123.71875 99.984375 -123.125 100.578125 -121.9375 C 100.773438 -121.738281 100.875 -121.488281 100.875 -121.1875 C 100.875 -120.894531 100.972656 -120.648438 101.171875 -120.453125 L 101.46875 -119.5625 Z M 109.765625 -114.8125 L 109.46875 -115.703125 C 110.257812 -116.097656 111.050781 -116.296875 111.84375 -116.296875 C 111.84375 -116.097656 111.890625 -115.945312 111.984375 -115.84375 C 112.085938 -115.75 112.039062 -115.601562 111.84375 -115.40625 L 111.84375 -114.515625 L 110.0625 -114.21875 Z M 107.09375 -112.140625 L 107.09375 -112.4375 L 107.984375 -112.140625 L 107.6875 -111.84375 Z M 105.3125 -107.6875 L 103.828125 -107.6875 L 103.53125 -108.28125 C 103.332031 -108.476562 103.234375 -109.070312 103.234375 -110.0625 L 104.421875 -110.359375 C 105.015625 -110.359375 105.410156 -110.257812 105.609375 -110.0625 C 105.609375 -109.863281 105.804688 -109.566406 106.203125 -109.171875 L 106.203125 -107.984375 Z M 108.28125 -106.5 C 108.675781 -105.707031 108.578125 -105.015625 107.984375 -104.421875 L 106.796875 -105.90625 L 107.390625 -106.203125 Z M 102.359375 -104.71875 C 102.359375 -104.125 102.0625 -103.828125 101.46875 -103.828125 C 100.875 -103.828125 100.578125 -103.925781 100.578125 -104.125 L 99.984375 -104.421875 L 100.578125 -105.015625 L 102.0625 -105.015625 C 102.0625 -104.816406 102.160156 -104.71875 102.359375 -104.71875 Z M 126.375 -102.0625 C 125.394531 -102.0625 124.90625 -102.160156 124.90625 -102.359375 L 125.5 -102.9375 C 126.082031 -102.9375 126.375 -102.644531 126.375 -102.0625 Z M 15.421875 -100.28125 C 14.828125 -100.082031 14.234375 -100.082031 13.640625 -100.28125 L 11.859375 -100.28125 L 11.859375 -102.65625 C 13.441406 -101.863281 14.628906 -101.070312 15.421875 -100.28125 Z M 111.546875 -99.390625 C 111.148438 -99.390625 110.503906 -99.335938 109.609375 -99.234375 C 108.722656 -99.140625 108.28125 -99.191406 108.28125 -99.390625 C 108.476562 -99.585938 108.578125 -100.082031 108.578125 -100.875 C 108.578125 -101.46875 108.875 -101.863281 109.46875 -102.0625 L 110.65625 -102.0625 L 111.25 -101.171875 C 111.25 -100.578125 111.546875 -100.28125 112.140625 -100.28125 L 112.140625 -99.390625 Z M 107.6875 -99.09375 L 107.390625 -98.796875 L 107.09375 -98.796875 L 106.796875 -98.5 L 106.203125 -98.5 C 105.609375 -99.09375 105.3125 -99.6875 105.3125 -100.28125 L 107.09375 -100.28125 L 107.6875 -99.984375 C 107.882812 -99.984375 107.984375 -99.785156 107.984375 -99.390625 L 107.984375 -99.09375 Z M 116.296875 -89.890625 C 116.296875 -89.492188 116 -89 115.40625 -88.40625 C 115.007812 -88.007812 114.8125 -87.414062 114.8125 -86.625 L 113.921875 -86.625 C 112.535156 -87.414062 111.84375 -88.109375 111.84375 -88.703125 L 111.84375 -92.5625 C 111.84375 -92.957031 111.941406 -93.15625 112.140625 -93.15625 C 112.535156 -93.550781 112.734375 -93.945312 112.734375 -94.34375 C 112.734375 -94.738281 112.632812 -95.035156 112.4375 -95.234375 C 112.4375 -95.429688 112.238281 -95.925781 111.84375 -96.71875 C 112.039062 -96.914062 112.4375 -97.015625 113.03125 -97.015625 L 113.328125 -97.015625 C 113.328125 -96.816406 113.523438 -96.71875 113.921875 -96.71875 L 114.21875 -96.71875 C 114.21875 -95.925781 114.515625 -93.847656 115.109375 -90.484375 C 115.109375 -90.484375 115.15625 -90.429688 115.25 -90.328125 C 115.351562 -90.234375 115.503906 -90.1875 115.703125 -90.1875 C 116.097656 -90.1875 116.296875 -90.085938 116.296875 -89.890625 Z M 121.640625 -94.9375 C 121.640625 -94.738281 121.242188 -94.441406 120.453125 -94.046875 C 120.253906 -94.046875 120.054688 -93.992188 119.859375 -93.890625 C 119.660156 -93.796875 119.460938 -93.75 119.265625 -93.75 C 119.066406 -93.75 118.570312 -93.945312 117.78125 -94.34375 L 117.78125 -96.421875 C 117.78125 -96.421875 117.828125 -96.46875 117.921875 -96.5625 C 118.023438 -96.664062 118.078125 -96.71875 118.078125 -96.71875 L 118.671875 -96.71875 C 119.660156 -96.71875 120.398438 -96.519531 120.890625 -96.125 C 121.390625 -95.726562 121.640625 -95.332031 121.640625 -94.9375 Z M 117.484375 -91.375 C 117.484375 -91.375 117.429688 -91.320312 117.328125 -91.21875 C 117.234375 -91.125 117.1875 -91.078125 117.1875 -91.078125 L 116.890625 -90.78125 L 116.890625 -90.484375 L 116.296875 -91.078125 Z M 105.609375 -86.625 C 105.210938 -86.820312 105.015625 -87.117188 105.015625 -87.515625 C 105.015625 -87.910156 105.113281 -88.207031 105.3125 -88.40625 C 105.507812 -88.40625 105.609375 -88.601562 105.609375 -89 L 106.203125 -89.296875 C 107.191406 -88.898438 107.6875 -88.503906 107.6875 -88.109375 C 107.6875 -87.910156 107.585938 -87.8125 107.390625 -87.8125 L 107.390625 -87.515625 C 107.585938 -87.316406 107.984375 -87.21875 108.578125 -87.21875 L 108.875 -86.625 C 109.070312 -86.625 109.171875 -86.425781 109.171875 -86.03125 L 106.203125 -86.03125 Z M 114.515625 -85.734375 L 115.109375 -85.734375 L 115.109375 -83.953125 L 114.515625 -83.953125 Z M 102.65625 -83.953125 C 102.0625 -83.359375 101.367188 -82.960938 100.578125 -82.765625 L 99.984375 -83.65625 L 99.984375 -84.25 L 100.578125 -84.546875 L 101.46875 -84.84375 Z M 107.390625 -78.921875 C 106.203125 -78.921875 105.410156 -78.523438 105.015625 -77.734375 C 104.617188 -77.535156 104.171875 -77.582031 103.671875 -77.875 C 103.179688 -78.175781 102.9375 -78.523438 102.9375 -78.921875 C 102.9375 -79.316406 103.035156 -79.757812 103.234375 -80.25 C 103.429688 -80.738281 103.726562 -81.082031 104.125 -81.28125 C 103.925781 -81.675781 104.421875 -81.28125 105.609375 -80.09375 C 106.796875 -79.3125 107.390625 -78.921875 107.390625 -78.921875 Z M 35.59375 -73.28125 L 34.40625 -72.984375 L 34.125 -74.171875 C 33.726562 -74.171875 33.820312 -74.46875 34.40625 -75.0625 L 36.1875 -75.0625 C 36.976562 -74.664062 37.375 -74.171875 37.375 -73.578125 Z M 97.3125 -73.578125 C 97.507812 -72.984375 97.507812 -72.585938 97.3125 -72.390625 C 97.113281 -72.390625 96.960938 -72.488281 96.859375 -72.6875 C 96.765625 -72.882812 96.71875 -72.984375 96.71875 -72.984375 Z M 94.640625 -72.6875 C 94.640625 -72.6875 94.585938 -72.632812 94.484375 -72.53125 C 94.390625 -72.4375 94.34375 -72.390625 94.34375 -72.390625 C 93.945312 -71.992188 93.550781 -71.796875 93.15625 -71.796875 L 93.15625 -72.984375 C 93.75 -72.984375 94.242188 -72.882812 94.640625 -72.6875 Z M 109.171875 -68.234375 C 107.585938 -68.234375 106.796875 -68.828125 106.796875 -70.015625 C 106.796875 -70.609375 107.09375 -71.003906 107.6875 -71.203125 L 110.0625 -71.203125 C 110.65625 -71.203125 110.953125 -71.003906 110.953125 -70.609375 L 111.546875 -69.71875 L 111.546875 -68.828125 Z M 113.03125 -60.515625 L 113.03125 -61.109375 L 114.8125 -61.109375 L 114.8125 -59.921875 L 112.734375 -59.921875 Z M 5.9375 -58.4375 C 5.539062 -58.4375 5.242188 -58.582031 5.046875 -58.875 C 4.847656 -59.175781 5.046875 -59.328125 5.640625 -59.328125 L 5.640625 -59.03125 C 5.640625 -58.832031 5.738281 -58.734375 5.9375 -58.734375 Z M 35.59375 -35.59375 L 35.59375 -36.78125 C 36.976562 -36.78125 37.375 -36.285156 36.78125 -35.296875 Z M 11.28125 -32.640625 L 10.984375 -32.34375 L 9.5 -32.640625 L 9.5 -33.234375 Z M 19.28125 -30.5625 L 16.015625 -30.265625 C 16.015625 -30.660156 15.914062 -30.859375 15.71875 -30.859375 L 15.71875 -31.453125 C 15.71875 -32.640625 16.507812 -33.234375 18.09375 -33.234375 C 18.488281 -33.234375 19.03125 -32.984375 19.71875 -32.484375 C 20.414062 -31.992188 20.765625 -31.453125 20.765625 -30.859375 Z M 15.421875 -23.4375 C 15.421875 -23.238281 15.023438 -22.742188 14.234375 -21.953125 C 13.441406 -21.359375 12.847656 -20.566406 12.453125 -19.578125 C 11.671875 -20.367188 11.179688 -21.160156 10.984375 -21.953125 L 10.09375 -25.515625 L 9.796875 -26.40625 C 9.796875 -26.800781 9.695312 -27.097656 9.5 -27.296875 C 10.09375 -27.097656 10.878906 -27 11.859375 -27 L 14.53125 -27 C 14.332031 -26.601562 14.429688 -26.007812 14.828125 -25.21875 Z M 62.296875 -16.015625 L 61.40625 -16.015625 L 62.296875 -16.3125 L 62.890625 -16.609375 C 63.285156 -16.609375 63.484375 -16.3125 63.484375 -15.71875 Z M 14.234375 -13.640625 C 14.035156 -13.640625 13.738281 -13.441406 13.34375 -13.046875 C 13.144531 -12.847656 12.648438 -12.75 11.859375 -12.75 C 11.273438 -12.75 10.734375 -12.847656 10.234375 -13.046875 C 9.742188 -13.242188 9.5 -13.441406 9.5 -13.640625 C 10.289062 -13.640625 10.785156 -13.738281 10.984375 -13.9375 C 11.367188 -14.132812 11.859375 -14.234375 12.453125 -14.234375 Z M 14.234375 -13.640625 "/></g></g></g></g></g><g clip-path="url(#ad7155587e)"><path fill="#f95c05" d="M 1061.089844 656.398438 C 1061 656.550781 1060.773438 656.589844 1060.679688 656.742188 C 1060.339844 657.3125 1061.058594 657.929688 1061.710938 660.449219 C 1063.398438 666.964844 1062.371094 670.90625 1062.304688 671.226562 C 1060.785156 678.515625 1057.019531 681.707031 1055.210938 684.660156 C 1054.53125 685.773438 1053.996094 684.878906 1053.96875 684.699219 C 1053.945312 684.523438 1054.953125 680.507812 1052.867188 676.128906 C 1052.261719 674.863281 1050.601562 672.792969 1050.21875 672.433594 C 1050.175781 672.394531 1049.714844 671.964844 1049.707031 671.96875 C 1049.523438 672 1049.40625 672.1875 1049.242188 672.265625 C 1049.148438 672.3125 1048.984375 672.25 1048.9375 672.339844 C 1048.910156 672.394531 1049.253906 674.375 1048.820312 676.070312 C 1047.675781 680.542969 1045.167969 683.65625 1043.988281 685.277344 C 1036.722656 695.261719 1038.523438 701.582031 1039.445312 704.5625 C 1039.929688 706.128906 1041.296875 708.8125 1042.136719 709.972656 C 1043.421875 711.753906 1043.6875 712.097656 1044.28125 712.699219 C 1046.074219 714.511719 1046.214844 714.351562 1046.5625 714.742188 C 1046.984375 715.222656 1047.109375 715.441406 1046.519531 715.703125 C 1046.292969 715.800781 1045.070312 715.269531 1044.953125 715.21875 C 1041.171875 713.578125 1035.460938 711.796875 1028.851562 706.003906 C 1014.75 693.640625 1014.417969 678.964844 1014.152344 675.507812 C 1013.730469 670.125 1015.175781 662.132812 1015.839844 659.945312 C 1018.113281 652.460938 1020.417969 645.519531 1028.101562 637.257812 C 1029.769531 635.46875 1029.664062 635.371094 1029.84375 635.257812 C 1031.050781 634.515625 1030.84375 635.644531 1030.828125 635.730469 C 1030.789062 635.929688 1030.660156 636.101562 1030.582031 636.289062 C 1030.53125 636.417969 1030.121094 637.425781 1029.992188 637.914062 C 1028.085938 645.234375 1029.59375 653.378906 1035.242188 654.378906 C 1042.507812 655.664062 1044.394531 647.953125 1044.574219 646.511719 C 1045.003906 642.988281 1044.074219 640.195312 1044.03125 639.992188 C 1043.078125 635.648438 1042.757812 635.742188 1041.671875 631.4375 C 1039.796875 624.003906 1039.375 621.132812 1039.441406 615.84375 C 1039.523438 609.449219 1042.121094 602.128906 1046.078125 597.082031 C 1051.554688 590.09375 1057.152344 587.003906 1059.023438 585.839844 C 1059.886719 585.304688 1060.214844 584.800781 1060.601562 585.742188 C 1060.648438 585.855469 1060.179688 586.753906 1060.132812 586.839844 C 1059.683594 587.699219 1058.5 590.757812 1058.386719 591.101562 C 1055.441406 600.195312 1056.984375 605.8125 1057.152344 606.746094 C 1059.039062 617.214844 1065.367188 624.128906 1065.746094 624.640625 C 1068.234375 627.953125 1071.066406 630.839844 1072.546875 632.441406 C 1073.269531 633.222656 1073.640625 633.867188 1073.691406 633.902344 C 1073.738281 633.933594 1074.128906 634.210938 1074.386719 633.921875 C 1074.585938 633.695312 1074.46875 632.609375 1074.457031 632.496094 C 1074.148438 629.683594 1074.523438 625.398438 1075.128906 623.355469 C 1076.625 618.3125 1076.835938 618.390625 1078.410156 615.835938 C 1079.242188 614.488281 1082.472656 611.367188 1083.851562 610.519531 C 1083.925781 610.472656 1084.59375 610.058594 1084.9375 610.449219 C 1085.367188 610.9375 1083.667969 613.050781 1084.148438 620.160156 C 1084.671875 627.855469 1090.640625 637.835938 1092.253906 640.699219 C 1097.300781 649.652344 1097.664062 650.351562 1098.113281 651.203125 C 1100.289062 655.347656 1100.226562 655.371094 1101.253906 658.261719 C 1101.71875 659.578125 1104.472656 667.339844 1103.925781 675.515625 C 1103.136719 687.277344 1099.394531 693.066406 1098.222656 695.292969 C 1097.605469 696.472656 1095.039062 700.28125 1093.59375 701.882812 C 1091.171875 704.566406 1089.078125 706.292969 1088.65625 706.644531 C 1084.796875 709.839844 1083.308594 710.503906 1082.292969 711.125 C 1078.878906 713.222656 1072.050781 715.6875 1071.976562 715.664062 C 1071.804688 715.609375 1071.546875 715.042969 1071.625 714.871094 C 1071.628906 714.867188 1072.976562 713.910156 1073.875 712.964844 C 1074.625 712.175781 1076.785156 709.367188 1077.375 708.316406 C 1077.527344 708.046875 1079.191406 705.089844 1079.257812 704.949219 C 1081.035156 701.125 1081.410156 697.15625 1081.476562 696.457031 C 1082.199219 688.847656 1078.761719 678.851562 1076.660156 675.050781 C 1073.105469 668.621094 1071.8125 666.71875 1066.382812 661.148438 C 1064.851562 659.578125 1062.453125 657.652344 1061.78125 656.992188 C 1061.453125 656.671875 1061.445312 656.703125 1061.089844 656.398438 Z M 1061.089844 656.398438 " fill-opacity="1" fill-rule="evenodd"/></g><g transform="matrix(1, 0, 0, 1, 223, 571)"><g clip-path="url(#d929f6df2d)"><g fill="#222222" fill-opacity="1"><g transform="translate(6.573021, 295.818715)"><g><path d="M 46.875 -42.421875 C 37.78125 -45.785156 28.484375 -50.335938 18.984375 -56.078125 C 17.992188 -56.671875 17.003906 -56.96875 16.015625 -56.96875 C 13.441406 -56.96875 11.664062 -55.78125 10.6875 -53.40625 L -2.375 -27.296875 C -2.96875 -26.109375 -3.265625 -25.019531 -3.265625 -24.03125 C -3.265625 -22.050781 -2.175781 -20.46875 0 -19.28125 C 19.976562 -8.40625 36.59375 -2.273438 49.84375 -0.890625 C 55.375 -0.492188 59.523438 -0.296875 62.296875 -0.296875 C 74.160156 -0.296875 84.941406 -2.175781 94.640625 -5.9375 C 103.734375 -9.5 111.050781 -15.332031 116.59375 -23.4375 C 122.132812 -31.539062 125.988281 -41.234375 128.15625 -52.515625 L 128.15625 -52.8125 C 128.351562 -54.195312 128.453125 -56.367188 128.453125 -59.328125 C 128.453125 -81.285156 116.191406 -99.679688 91.671875 -114.515625 L 82.46875 -120.15625 C 77.925781 -122.925781 73.972656 -125.988281 70.609375 -129.34375 C 65.066406 -134.289062 62.296875 -140.03125 62.296875 -146.5625 C 62.296875 -150.507812 63.285156 -154.363281 65.265625 -158.125 C 67.640625 -164.257812 71.695312 -166.832031 77.4375 -165.84375 L 77.734375 -165.84375 C 79.898438 -165.644531 81.28125 -163.765625 81.875 -160.203125 C 82.46875 -152.878906 82.765625 -145.859375 82.765625 -139.140625 C 82.765625 -135.179688 84.742188 -133.203125 88.703125 -133.203125 L 123.125 -133.203125 C 127.070312 -133.203125 129.046875 -135.082031 129.046875 -138.84375 C 129.441406 -145.164062 129.640625 -150.601562 129.640625 -155.15625 C 129.640625 -159.113281 129.441406 -162.675781 129.046875 -165.84375 C 128.253906 -175.53125 125.6875 -183.144531 121.34375 -188.6875 C 112.632812 -199.363281 98.984375 -204.703125 80.390625 -204.703125 C 75.253906 -204.703125 70.3125 -204.40625 65.5625 -203.8125 C 43.8125 -201.238281 27.988281 -191.25 18.09375 -173.84375 C 10.976562 -161.976562 7.421875 -149.71875 7.421875 -137.0625 C 7.421875 -131.914062 8.015625 -126.675781 9.203125 -121.34375 C 11.171875 -113.03125 14.828125 -106.40625 20.171875 -101.46875 C 20.171875 -101.46875 20.21875 -101.414062 20.3125 -101.3125 C 20.414062 -101.21875 20.46875 -101.171875 20.46875 -101.171875 C 30.15625 -93.054688 35.988281 -88.503906 37.96875 -87.515625 L 38.5625 -87.21875 L 44.5 -83.65625 C 54.582031 -77.53125 61.109375 -73.28125 64.078125 -70.90625 C 70.210938 -66.351562 73.28125 -60.617188 73.28125 -53.703125 C 73.28125 -49.347656 71.941406 -45.984375 69.265625 -43.609375 C 66.597656 -41.234375 63.085938 -40.046875 58.734375 -40.046875 C 55.179688 -40.046875 51.226562 -40.835938 46.875 -42.421875 Z M 94.9375 -170 L 96.125 -170 L 96.125 -169.40625 L 94.9375 -169.40625 Z M 102.65625 -159.90625 C 102.457031 -159.707031 102.207031 -159.609375 101.90625 -159.609375 C 101.613281 -159.609375 101.566406 -159.804688 101.765625 -160.203125 C 101.765625 -160.203125 101.8125 -160.25 101.90625 -160.34375 C 102.007812 -160.445312 102.0625 -160.5 102.0625 -160.5 L 102.359375 -161.09375 C 102.359375 -161.09375 102.40625 -161.039062 102.5 -160.9375 C 102.601562 -160.84375 102.65625 -160.796875 102.65625 -160.796875 L 103.234375 -160.5 Z M 96.125 -148.046875 C 96.125 -147.648438 96.023438 -147.453125 95.828125 -147.453125 L 94.34375 -147.453125 C 94.34375 -148.234375 94.835938 -148.625 95.828125 -148.625 Z M 89 -96.421875 C 89.394531 -96.023438 89.59375 -95.53125 89.59375 -94.9375 L 87.21875 -94.9375 C 87.21875 -94.9375 87.117188 -95.28125 86.921875 -95.96875 C 86.722656 -96.664062 86.820312 -97.507812 87.21875 -98.5 L 89 -98.5 C 89.195312 -98.300781 89.296875 -97.804688 89.296875 -97.015625 Z M 76.25 -96.421875 L 76.25 -97.609375 L 78.921875 -97.609375 L 78.921875 -96.421875 Z M 92.5625 -94.640625 L 91.96875 -94.34375 L 91.96875 -94.046875 L 89.59375 -92.859375 C 88.800781 -94.046875 88.40625 -94.640625 88.40625 -94.640625 C 88.800781 -94.835938 89.394531 -94.9375 90.1875 -94.9375 L 91.375 -94.9375 Z M 84.25 -84.546875 C 84.644531 -84.148438 84.84375 -83.753906 84.84375 -83.359375 L 84.25 -83.0625 L 83.65625 -83.359375 L 83.0625 -83.359375 L 83.0625 -85.4375 L 83.65625 -84.84375 Z M 100.28125 -80.09375 L 99.6875 -79.8125 L 97.90625 -79.8125 C 97.90625 -80.59375 98.5 -81.28125 99.6875 -81.875 L 100.875 -80.6875 L 100.875 -80.09375 Z M 95.828125 -75.359375 L 95.828125 -76.25 L 98.5 -75.953125 L 98.5 -74.765625 Z M 112.140625 -69.71875 C 112.335938 -69.71875 112.4375 -69.519531 112.4375 -69.125 C 112.4375 -67.9375 111.84375 -67.34375 110.65625 -67.34375 C 109.46875 -67.34375 108.675781 -67.835938 108.28125 -68.828125 L 108.875 -70.3125 L 111.546875 -70.3125 C 111.546875 -70.113281 111.644531 -70.015625 111.84375 -70.015625 Z M 98.796875 -68.53125 L 97.609375 -69.125 L 98.5 -70.015625 L 99.6875 -69.71875 Z M 103.234375 -61.40625 C 103.234375 -61.007812 103.53125 -60.8125 104.125 -60.8125 C 104.125 -60.414062 104.023438 -60.21875 103.828125 -60.21875 L 103.828125 -59.625 C 103.628906 -59.625 103.53125 -59.523438 103.53125 -59.328125 L 101.46875 -59.328125 L 101.171875 -59.625 L 100.875 -59.625 L 100.28125 -59.921875 L 100.875 -62 L 102.0625 -62 Z M 115.40625 -60.515625 L 116.296875 -60.21875 L 115.40625 -59.625 L 114.8125 -59.328125 C 114.21875 -58.734375 113.722656 -58.4375 113.328125 -58.4375 L 113.328125 -59.625 C 113.128906 -60.019531 113.226562 -60.414062 113.625 -60.8125 L 114.8125 -60.8125 Z M 106.203125 -55.1875 C 105.410156 -55.1875 104.765625 -55.382812 104.265625 -55.78125 C 103.773438 -56.175781 103.628906 -56.664062 103.828125 -57.25 C 104.023438 -57.25 104.320312 -57.296875 104.71875 -57.390625 C 105.113281 -57.492188 105.707031 -57.546875 106.5 -57.546875 L 107.09375 -57.84375 C 107.289062 -58.039062 107.6875 -58.140625 108.28125 -58.140625 L 108.578125 -56.671875 L 107.390625 -55.78125 Z M 104.71875 -50.4375 C 106.300781 -48.851562 107.09375 -47.960938 107.09375 -47.765625 C 107.09375 -47.367188 106.992188 -47.070312 106.796875 -46.875 L 106.796875 -46.28125 L 106.203125 -46.28125 L 105.609375 -45.984375 L 104.71875 -45.984375 C 104.125 -45.984375 103.628906 -46.179688 103.234375 -46.578125 L 102.359375 -46.578125 C 102.359375 -46.578125 102.007812 -46.625 101.3125 -46.71875 C 100.625 -46.820312 99.6875 -46.972656 98.5 -47.171875 C 98.101562 -47.566406 97.90625 -47.863281 97.90625 -48.0625 L 97.609375 -48.359375 L 97.609375 -49.546875 L 98.5 -49.546875 C 99.488281 -49.546875 100.28125 -49.445312 100.875 -49.25 C 101.269531 -49.050781 101.765625 -48.953125 102.359375 -48.953125 L 102.65625 -48.953125 C 103.039062 -48.953125 103.332031 -49.050781 103.53125 -49.25 L 104.125 -49.546875 C 104.125 -49.742188 104.320312 -50.039062 104.71875 -50.4375 Z M 113.625 -48.0625 L 113.625 -47.46875 L 111.25 -47.46875 C 111.84375 -48.0625 112.140625 -48.65625 112.140625 -49.25 L 114.21875 -49.25 Z M 110.359375 -45.390625 L 110.359375 -47.171875 L 111.84375 -47.171875 L 111.84375 -45.390625 Z M 103.828125 -43.90625 C 103.828125 -43.507812 103.335938 -43.015625 102.359375 -42.421875 L 100.28125 -41.234375 L 99.09375 -41.234375 C 97.90625 -41.234375 97.113281 -41.429688 96.71875 -41.828125 L 96.71875 -42.421875 C 96.71875 -43.015625 97.3125 -43.609375 98.5 -44.203125 C 99.09375 -44.203125 99.488281 -44.300781 99.6875 -44.5 C 100.675781 -45.09375 101.070312 -45.289062 100.875 -45.09375 L 103.828125 -45.09375 Z M 112.4375 -41.828125 C 113.03125 -41.234375 113.328125 -40.835938 113.328125 -40.640625 C 113.328125 -39.648438 112.832031 -39.15625 111.84375 -39.15625 L 110.65625 -38.265625 C 109.863281 -39.253906 109.46875 -40.046875 109.46875 -40.640625 C 109.46875 -41.828125 109.960938 -42.519531 110.953125 -42.71875 Z M 104.125 -39.453125 C 103.144531 -39.253906 102.0625 -39.253906 100.875 -39.453125 L 100.875 -40.640625 L 102.0625 -41.53125 L 103.828125 -41.53125 C 104.023438 -41.53125 104.125 -41.234375 104.125 -40.640625 Z M 43.609375 -39.15625 L 43.609375 -40.046875 L 45.390625 -40.046875 L 45.390625 -39.15625 Z M 97.90625 -35.296875 L 97.3125 -34.703125 L 96.71875 -34.703125 C 96.71875 -34.503906 96.519531 -34.40625 96.125 -34.40625 L 96.125 -35.59375 C 96.125 -35.988281 96.320312 -36.382812 96.71875 -36.78125 C 96.914062 -36.78125 97.0625 -36.726562 97.15625 -36.625 C 97.257812 -36.53125 97.3125 -36.484375 97.3125 -36.484375 Z M 87.8125 -31.75 C 88.207031 -31.550781 88.40625 -30.957031 88.40625 -29.96875 C 87.613281 -29.96875 86.820312 -30.164062 86.03125 -30.5625 C 86.226562 -30.5625 86.375 -30.609375 86.46875 -30.703125 C 86.570312 -30.804688 86.625 -30.859375 86.625 -30.859375 C 86.625 -31.054688 86.820312 -31.15625 87.21875 -31.15625 L 87.21875 -31.453125 C 87.21875 -31.648438 87.414062 -31.75 87.8125 -31.75 Z M 104.125 -31.15625 C 104.320312 -30.957031 104.421875 -30.660156 104.421875 -30.265625 C 103.828125 -30.265625 102.644531 -30.5625 100.875 -31.15625 L 104.125 -31.75 Z M 49.546875 -29.96875 L 48.359375 -30.5625 L 49.25 -31.453125 L 50.4375 -31.15625 Z M 89.59375 -28.1875 C 90.382812 -28.1875 90.878906 -28.085938 91.078125 -27.890625 L 92.5625 -27.59375 C 92.5625 -26.601562 91.769531 -26.109375 90.1875 -26.109375 C 90.1875 -26.304688 89.789062 -26.40625 89 -26.40625 Z M 83.65625 -26.109375 L 83.65625 -27.59375 L 84.84375 -27.59375 L 84.84375 -26.109375 Z M 56.671875 -20.765625 L 56.671875 -21.65625 L 58.734375 -21.65625 L 58.734375 -20.765625 Z M 89 -19.875 C 88.601562 -20.070312 88.40625 -20.367188 88.40625 -20.765625 C 88.40625 -21.359375 88.601562 -21.65625 89 -21.65625 L 91.375 -21.65625 Z M 89 -19.875 "/></g></g></g><g fill="#222222" fill-opacity="1"><g transform="translate(148.669895, 295.818715)"><g><path d="M 141.21875 -150.109375 C 141.8125 -145.960938 142.109375 -141.910156 142.109375 -137.953125 C 142.109375 -126.679688 139.832031 -116 135.28125 -105.90625 C 132.707031 -100.96875 130.035156 -96.617188 127.265625 -92.859375 C 127.859375 -93.847656 128.15625 -95.035156 128.15625 -96.421875 C 128.15625 -98.003906 128.054688 -99.191406 127.859375 -99.984375 C 127.660156 -100.773438 127.5625 -101.757812 127.5625 -102.9375 C 127.5625 -103.925781 127.757812 -104.421875 128.15625 -104.421875 L 127.859375 -104.421875 C 127.859375 -105.804688 127.757812 -106.796875 127.5625 -107.390625 C 127.5625 -108.578125 127.957031 -109.664062 128.75 -110.65625 C 127.5625 -110.851562 127.164062 -111.347656 127.5625 -112.140625 C 127.5625 -112.929688 127.460938 -113.425781 127.265625 -113.625 L 127.265625 -92.859375 C 122.523438 -86.328125 116.59375 -81.085938 109.46875 -77.140625 L 109.171875 -77.140625 C 99.679688 -71.992188 89.101562 -67.835938 77.4375 -64.671875 C 74.070312 -63.484375 69.421875 -62.394531 63.484375 -61.40625 L 60.8125 -60.8125 L 58.4375 -60.515625 L 58.140625 -60.515625 C 58.140625 -60.910156 57.941406 -61.109375 57.546875 -61.109375 C 56.566406 -61.109375 56.078125 -60.8125 56.078125 -60.21875 C 56.078125 -60.019531 56.175781 -59.921875 56.375 -59.921875 L 47.171875 -58.734375 L 45.390625 -5.9375 C 45.390625 -1.976562 43.410156 0 39.453125 0 L 2.96875 0 C 1.1875 0 -0.242188 -0.59375 -1.328125 -1.78125 C -2.421875 -2.96875 -2.96875 -4.453125 -2.96875 -6.234375 L -1.78125 -28.484375 L -1.1875 -27.890625 C -0.59375 -28.085938 0.394531 -28.679688 1.78125 -29.671875 L 0.890625 -30.265625 L -0.59375 -30.265625 L -1.78125 -29.375 L -1.1875 -45.09375 L -0.296875 -45.09375 C -0.296875 -45.488281 -0.492188 -45.6875 -0.890625 -45.6875 L -1.1875 -45.984375 L 5.34375 -186.3125 C 5.738281 -189.28125 7.320312 -191.0625 10.09375 -191.65625 C 46.675781 -199.164062 67.242188 -203.21875 71.796875 -203.8125 C 72.585938 -203.8125 73.675781 -203.859375 75.0625 -203.953125 C 76.445312 -204.054688 78.03125 -204.304688 79.8125 -204.703125 L 87.8125 -205 L 88.109375 -205 C 103.535156 -204.207031 115.796875 -198.863281 124.890625 -188.96875 C 133.992188 -179.082031 139.4375 -166.128906 141.21875 -150.109375 Z M 15.71875 -173.25 L 15.71875 -174.140625 L 15.125 -174.140625 L 15.125 -173.25 Z M 49.546875 -106.203125 C 55.867188 -106.992188 60.613281 -107.785156 63.78125 -108.578125 C 73.476562 -111.742188 80.796875 -115.40625 85.734375 -119.5625 C 89.492188 -122.726562 91.96875 -126.878906 93.15625 -132.015625 C 93.351562 -133.003906 93.453125 -134.488281 93.453125 -136.46875 C 93.453125 -142.207031 92.164062 -147.347656 89.59375 -151.890625 C 87.019531 -156.441406 83.363281 -158.71875 78.625 -158.71875 C 77.4375 -158.71875 76.546875 -158.617188 75.953125 -158.421875 L 52.515625 -153.671875 Z M 110.359375 -156.9375 L 110.359375 -156.34375 L 111.546875 -156.34375 L 111.546875 -156.9375 Z M 94.34375 -154.5625 C 94.144531 -154.363281 94.046875 -154.164062 94.046875 -153.96875 C 94.046875 -153.769531 94.144531 -153.671875 94.34375 -153.671875 C 94.539062 -153.273438 94.835938 -153.078125 95.234375 -153.078125 C 95.628906 -153.078125 95.828125 -153.273438 95.828125 -153.671875 L 96.421875 -153.96875 Z M 12.15625 -151.59375 L 12.15625 -153.078125 L 11.5625 -153.078125 L 11.5625 -151.59375 Z M 103.234375 -151.59375 L 103.234375 -152.484375 L 102.359375 -152.484375 L 102.359375 -151.59375 Z M 105.015625 -141.8125 C 105.015625 -142.800781 104.226562 -143.691406 102.65625 -144.484375 L 102.65625 -140.921875 C 103.4375 -140.921875 104.222656 -141.21875 105.015625 -141.8125 Z M 105.609375 -135.875 C 106.398438 -136.664062 106.796875 -137.160156 106.796875 -137.359375 L 106.203125 -138.84375 L 105.015625 -137.953125 C 105.015625 -137.953125 104.960938 -137.898438 104.859375 -137.796875 C 104.765625 -137.703125 104.71875 -137.65625 104.71875 -137.65625 L 104.421875 -137.65625 C 103.628906 -137.257812 103.039062 -136.863281 102.65625 -136.46875 Z M 110.359375 -133.5 C 109.765625 -134.882812 109.367188 -135.578125 109.171875 -135.578125 L 108.578125 -135.875 L 107.984375 -135.578125 C 107.984375 -134.785156 108.378906 -134.390625 109.171875 -134.390625 Z M 99.6875 -129.046875 C 99.6875 -129.640625 99.585938 -130.035156 99.390625 -130.234375 L 98.796875 -130.53125 L 97.609375 -130.53125 L 97.609375 -129.046875 Z M 99.09375 -125.5 C 99.882812 -126.28125 100.28125 -126.96875 100.28125 -127.5625 C 99.488281 -127.5625 98.992188 -127.660156 98.796875 -127.859375 L 97.609375 -126.96875 C 97.015625 -126.375 96.816406 -125.976562 97.015625 -125.78125 Z M 102.65625 -126.078125 C 104.226562 -126.078125 105.015625 -126.570312 105.015625 -127.5625 L 102.65625 -127.5625 Z M 128.15625 -122.234375 C 128.351562 -122.429688 128.453125 -122.726562 128.453125 -123.125 C 128.453125 -123.914062 128.054688 -124.800781 127.265625 -125.78125 C 126.867188 -125.394531 126.867188 -125.003906 127.265625 -124.609375 C 127.265625 -124.015625 127.164062 -123.617188 126.96875 -123.421875 L 124.90625 -123.421875 C 125.300781 -122.828125 125.101562 -122.53125 124.3125 -122.53125 C 124.3125 -122.53125 124.898438 -122.332031 126.078125 -121.9375 L 127.5625 -121.640625 C 127.5625 -121.640625 127.609375 -121.738281 127.703125 -121.9375 C 127.804688 -122.132812 127.957031 -122.234375 128.15625 -122.234375 Z M 100.875 -123.421875 C 102.445312 -122.828125 103.828125 -122.53125 105.015625 -122.53125 C 103.828125 -123.519531 103.234375 -124.015625 103.234375 -124.015625 C 102.253906 -124.015625 101.664062 -123.914062 101.46875 -123.71875 Z M 102.65625 -122.234375 L 101.46875 -121.640625 L 103.234375 -120.453125 L 103.828125 -121.046875 Z M 126.96875 -121.046875 L 126.96875 -114.21875 L 127.859375 -114.21875 L 127.859375 -121.046875 Z M 97.015625 -112.734375 C 96.023438 -113.921875 94.9375 -114.710938 93.75 -115.109375 Z M 99.390625 -101.46875 L 99.390625 -100.875 L 102.359375 -100.875 L 102.359375 -101.46875 Z M 94.34375 -97.609375 C 94.34375 -98.003906 94.09375 -98.347656 93.59375 -98.640625 C 93.101562 -98.941406 92.660156 -99.09375 92.265625 -99.09375 L 91.671875 -97.3125 Z M 86.921875 -97.609375 L 88.703125 -97.609375 L 88.703125 -98.203125 L 86.921875 -98.203125 Z M 21.359375 -93.15625 C 20.960938 -93.75 20.46875 -94.242188 19.875 -94.640625 C 19.28125 -95.035156 18.984375 -95.429688 18.984375 -95.828125 C 18.390625 -95.234375 17.796875 -94.9375 17.203125 -94.9375 C 17.203125 -94.738281 17.003906 -94.640625 16.609375 -94.640625 C 18.191406 -94.441406 19.28125 -93.945312 19.875 -93.15625 Z M 87.515625 -95.53125 C 87.117188 -95.132812 86.921875 -94.9375 86.921875 -94.9375 L 86.625 -94.9375 C 86.226562 -94.738281 86.03125 -94.441406 86.03125 -94.046875 C 86.03125 -93.453125 86.128906 -93.15625 86.328125 -93.15625 L 86.625 -93.15625 C 87.019531 -92.757812 87.515625 -92.5625 88.109375 -92.5625 C 89.097656 -92.5625 89.691406 -92.859375 89.890625 -93.453125 L 89.890625 -94.9375 Z M 15.125 -93.15625 L 15.71875 -94.046875 C 15.914062 -94.242188 16.015625 -94.539062 16.015625 -94.9375 L 14.53125 -94.9375 L 14.53125 -94.34375 Z M 58.734375 -94.34375 L 57.84375 -94.34375 L 57.84375 -92.859375 L 58.734375 -92.859375 Z M 16.609375 -89.59375 C 17.398438 -89.59375 18.09375 -89.691406 18.6875 -89.890625 C 19.875 -90.285156 20.566406 -90.484375 20.765625 -90.484375 L 19.28125 -91.671875 C 18.488281 -92.066406 17.992188 -92.265625 17.796875 -92.265625 C 17.398438 -92.265625 16.804688 -92.066406 16.015625 -91.671875 L 14.53125 -90.484375 C 14.925781 -90.285156 15.222656 -90.132812 15.421875 -90.03125 C 15.617188 -89.9375 15.617188 -89.890625 15.421875 -89.890625 Z M 94.046875 -91.96875 L 93.453125 -90.484375 L 94.640625 -90.1875 L 95.234375 -91.375 Z M 74.765625 -87.515625 C 74.367188 -87.515625 73.972656 -87.363281 73.578125 -87.0625 C 73.179688 -86.769531 72.984375 -86.425781 72.984375 -86.03125 L 75.0625 -85.734375 L 75.0625 -84.25 L 76.84375 -84.25 L 77.734375 -84.546875 C 76.941406 -85.335938 76.050781 -85.734375 75.0625 -85.734375 L 75.359375 -86.625 C 75.359375 -86.820312 75.160156 -87.117188 74.765625 -87.515625 Z M 85.734375 -85.734375 C 85.734375 -85.929688 85.632812 -86.03125 85.4375 -86.03125 L 85.4375 -86.625 C 85.4375 -86.625 85.382812 -86.671875 85.28125 -86.765625 C 85.1875 -86.867188 85.140625 -86.921875 85.140625 -86.921875 L 83.359375 -85.734375 Z M 14.828125 -86.625 L 14.234375 -86.625 L 15.125 -84.25 L 15.71875 -84.25 Z M 80.390625 -83.65625 C 80.785156 -84.050781 80.984375 -84.445312 80.984375 -84.84375 C 80.984375 -85.238281 80.785156 -85.632812 80.390625 -86.03125 L 78.328125 -86.03125 C 78.921875 -84.644531 79.609375 -83.851562 80.390625 -83.65625 Z M 15.125 -83.65625 L 14.234375 -82.765625 L 14.828125 -82.46875 L 15.71875 -83.65625 Z M 61.40625 -83.65625 L 61.40625 -81.578125 L 63.78125 -81.875 Z M 22.546875 -83.359375 L 22.546875 -81.875 L 24.328125 -81.875 L 24.328125 -83.359375 Z M 77.734375 -82.171875 C 76.742188 -81.578125 75.851562 -80.789062 75.0625 -79.8125 L 77.4375 -79.8125 L 81.875 -78.921875 L 81.875 -79.515625 L 81.578125 -79.8125 L 81.28125 -80.390625 L 80.984375 -80.390625 L 80.6875 -80.09375 L 79.515625 -79.8125 L 78.328125 -79.8125 Z M 83.953125 -77.4375 C 83.953125 -78.226562 83.457031 -78.921875 82.46875 -79.515625 C 81.875 -78.722656 81.773438 -77.929688 82.171875 -77.140625 L 83.359375 -77.140625 Z M 76.546875 -74.171875 C 77.140625 -74.171875 77.632812 -73.972656 78.03125 -73.578125 C 79.019531 -74.960938 79.515625 -75.753906 79.515625 -75.953125 L 79.21875 -77.140625 C 79.21875 -77.140625 78.921875 -77.4375 78.328125 -78.03125 L 77.734375 -77.734375 L 77.4375 -77.734375 C 77.4375 -77.734375 77.382812 -77.679688 77.28125 -77.578125 C 77.1875 -77.484375 77.140625 -77.4375 77.140625 -77.4375 L 76.546875 -77.140625 Z M 10.6875 -76.25 L 12.15625 -76.25 L 11.859375 -76.84375 C 11.859375 -76.84375 11.566406 -77.140625 10.984375 -77.734375 L 10.984375 -76.84375 Z M 85.734375 -75.0625 L 85.734375 -74.171875 L 88.109375 -74.765625 L 88.109375 -75.65625 Z M 57.546875 -73.875 C 56.566406 -72.882812 56.078125 -72.191406 56.078125 -71.796875 L 57.546875 -70.90625 L 59.328125 -72.390625 Z M 80.390625 -72.6875 C 80.390625 -72.09375 80.882812 -71.796875 81.875 -71.796875 L 82.46875 -71.796875 C 82.664062 -71.992188 82.765625 -72.390625 82.765625 -72.984375 L 82.765625 -73.875 C 81.179688 -73.875 80.390625 -73.476562 80.390625 -72.6875 Z M 19.875 -73.578125 L 18.09375 -72.984375 L 18.09375 -72.390625 L 20.171875 -72.984375 Z M 83.953125 -69.71875 C 84.347656 -70.3125 84.347656 -70.804688 83.953125 -71.203125 C 82.960938 -70.804688 82.46875 -70.3125 82.46875 -69.71875 Z M 81.28125 -69.125 C 81.28125 -69.71875 80.984375 -70.113281 80.390625 -70.3125 C 79.410156 -70.3125 78.921875 -69.914062 78.921875 -69.125 Z M 13.046875 -68.53125 L 13.046875 -66.75 L 13.640625 -66.75 L 13.640625 -68.53125 Z M 55.1875 -65.265625 L 55.1875 -64.078125 L 56.96875 -64.078125 L 56.96875 -65.265625 Z M 13.34375 -64.96875 C 13.144531 -64.175781 12.945312 -63.484375 12.75 -62.890625 C 12.550781 -62.296875 12.351562 -61.703125 12.15625 -61.109375 C 11.957031 -60.515625 11.757812 -59.921875 11.5625 -59.328125 C 11.375 -58.734375 11.28125 -58.140625 11.28125 -57.546875 C 11.28125 -57.160156 11.375 -56.867188 11.5625 -56.671875 C 11.957031 -56.273438 12.054688 -55.976562 11.859375 -55.78125 C 10.878906 -55.582031 10.585938 -54.988281 10.984375 -54 C 11.367188 -52.8125 11.367188 -52.019531 10.984375 -51.625 C 10.984375 -51.625 10.785156 -51.425781 10.390625 -51.03125 C 10.390625 -51.03125 10.335938 -50.976562 10.234375 -50.875 C 10.140625 -50.78125 10.09375 -50.734375 10.09375 -50.734375 C 9.695312 -50.535156 9.5 -50.238281 9.5 -49.84375 C 9.5 -49.445312 9.597656 -49.148438 9.796875 -48.953125 C 9.796875 -48.953125 9.84375 -48.800781 9.9375 -48.5 C 10.039062 -48.207031 9.894531 -47.960938 9.5 -47.765625 L 8.90625 -47.46875 L 8.609375 -47.46875 C 9.203125 -46.476562 9.398438 -45.6875 9.203125 -45.09375 C 8.410156 -42.914062 8.210938 -41.429688 8.609375 -40.640625 C 8.804688 -40.242188 8.851562 -39.894531 8.75 -39.59375 C 8.65625 -39.300781 8.507812 -39.15625 8.3125 -39.15625 C 7.914062 -38.164062 7.71875 -36.976562 7.71875 -35.59375 C 7.71875 -34.21875 7.816406 -33.234375 8.015625 -32.640625 C 7.421875 -32.441406 7.023438 -32.046875 6.828125 -31.453125 L 5.640625 -29.96875 L 5.640625 -29.078125 C 5.640625 -26.304688 5.539062 -24.425781 5.34375 -23.4375 C 4.945312 -22.050781 4.695312 -20.910156 4.59375 -20.015625 C 4.5 -19.128906 4.453125 -18.390625 4.453125 -17.796875 C 4.453125 -17.203125 4.351562 -16.707031 4.15625 -16.3125 L 3.5625 -15.125 C 3.5625 -14.132812 3.707031 -12.648438 4 -10.671875 C 4.300781 -8.703125 4.75 -7.421875 5.34375 -6.828125 C 6.53125 -6.429688 7.914062 -6.234375 9.5 -6.234375 L 13.34375 -5.640625 Z M 2.671875 -54.59375 L 2.671875 -55.484375 L 0.890625 -55.484375 L 0.890625 -54.59375 Z M 2.671875 -49.546875 C 2.273438 -49.941406 1.726562 -50.140625 1.03125 -50.140625 C 0.34375 -50.140625 0 -49.941406 0 -49.546875 L 0.890625 -48.65625 C 1.484375 -48.65625 2.078125 -48.953125 2.671875 -49.546875 Z M 2.375 -45.984375 C 2.769531 -45.984375 2.96875 -46.179688 2.96875 -46.578125 C 1.78125 -46.972656 0.789062 -46.972656 0 -46.578125 L 1.484375 -45.6875 Z M 2.375 -43.609375 C 1.382812 -44.203125 0.890625 -44.796875 0.890625 -45.390625 L 0.59375 -44.5 C 0.59375 -44.101562 0.492188 -43.804688 0.296875 -43.609375 Z M 28.78125 -40.9375 C 28.78125 -40.144531 28.976562 -39.351562 29.375 -38.5625 L 29.375 -41.828125 Z M -0.59375 -37.671875 L -0.59375 -36.78125 L 0.890625 -36.78125 L 0.890625 -37.671875 Z M 28.78125 -34.703125 L 28.484375 -33.828125 C 28.484375 -33.429688 28.382812 -33.234375 28.1875 -33.234375 C 28.78125 -32.242188 28.878906 -31.75 28.484375 -31.75 C 28.285156 -31.945312 28.132812 -31.992188 28.03125 -31.890625 C 27.9375 -31.796875 27.890625 -31.648438 27.890625 -31.453125 C 27.890625 -30.660156 27.988281 -30.015625 28.1875 -29.515625 C 28.382812 -29.023438 28.679688 -28.382812 29.078125 -27.59375 L 29.375 -37.671875 Z M -0.890625 -25.21875 L -1.78125 -24.921875 L -1.78125 -24.625 L -0.59375 -24.921875 Z M 39.75 -1.484375 L 39.15625 -1.484375 L 39.453125 -0.59375 L 40.046875 -0.59375 Z M 39.75 -1.484375 "/></g></g></g></g></g></svg>